<?xml version="1.0" encoding="UTF-8" standalone="no"?>
<!-- Created with Inkscape (http://www.inkscape.org/) -->

<svg
   xmlns:dc="http://purl.org/dc/elements/1.1/"
   xmlns:cc="http://creativecommons.org/ns#"
   xmlns:rdf="http://www.w3.org/1999/02/22-rdf-syntax-ns#"
   xmlns:svg="http://www.w3.org/2000/svg"
   xmlns="http://www.w3.org/2000/svg"
   xmlns:sodipodi="http://sodipodi.sourceforge.net/DTD/sodipodi-0.dtd"
   xmlns:inkscape="http://www.inkscape.org/namespaces/inkscape"
   version="1.1"
   id="svg2"
   xml:space="preserve"
   width="1889.16"
   height="1492.3066"
   viewBox="0 0 1889.16 1492.3066"
   sodipodi:docname="Hockey-Overlay.svg"
   inkscape:version="0.92.2 (5c3e80d, 2017-08-06)"><metadata
     id="metadata8"><rdf:RDF><cc:Work
         rdf:about=""><dc:format>image/svg+xml</dc:format><dc:type
           rdf:resource="http://purl.org/dc/dcmitype/StillImage" /><dc:title></dc:title></cc:Work></rdf:RDF></metadata><defs
     id="defs6"><clipPath
       clipPathUnits="userSpaceOnUse"
       id="clipPath18"><path
         d="M 0,1148.031 H 1445.669 V 0 H 0 Z"
         id="path16"
         inkscape:connector-curvature="0" /></clipPath><clipPath
       clipPathUnits="userSpaceOnUse"
       id="clipPath662"><path
         d="M 0,1148.031 H 1445.669 V 0 H 0 Z"
         id="path660"
         inkscape:connector-curvature="0" /></clipPath><clipPath
       clipPathUnits="userSpaceOnUse"
       id="clipPath706"><path
         d="M 0,1148.031 H 1445.669 V 0 H 0 Z"
         id="path704"
         inkscape:connector-curvature="0" /></clipPath></defs><sodipodi:namedview
     pagecolor="#ffffff"
     bordercolor="#666666"
     borderopacity="1"
     objecttolerance="10"
     gridtolerance="10"
     guidetolerance="10"
     inkscape:pageopacity="0"
     inkscape:pageshadow="2"
     inkscape:window-width="1886"
     inkscape:window-height="1058"
     id="namedview4"
     showgrid="false"
     inkscape:zoom="0.44730003"
     inkscape:cx="741.1169"
     inkscape:cy="639.71227"
     inkscape:window-x="0"
     inkscape:window-y="0"
     inkscape:window-maximized="0"
     inkscape:current-layer="g10" /><g
     id="g10"
     inkscape:groupmode="layer"
     inkscape:label="Hockey-Overlay"
     transform="matrix(1.3333333,0,0,-1.3333333,-19.2,1511.5067)"><g
       id="g12"><g
         id="g14"
         clip-path="url(#clipPath18)"><g
           id="g20"
           transform="translate(749.2845,564.4417)"><path
             d="m 0,0 c 0,-15.155 -12.286,-27.44 -27.44,-27.44 -15.155,0 -27.441,12.285 -27.441,27.44 0,15.155 12.286,27.44 27.441,27.44 C -12.286,27.44 0,15.155 0,0"
             style="fill:#ed1b34;fill-opacity:1;fill-rule:nonzero;stroke:none"
             id="path22"
             inkscape:connector-curvature="0" /></g><g
           id="g24"
           transform="translate(116.5242,375.9537)"><path
             d="M 0,0 V 0.001 Z"
             style="fill:#f8bb0a;fill-opacity:1;fill-rule:nonzero;stroke:none"
             id="path26"
             inkscape:connector-curvature="0" /></g><g
           id="g28"
           transform="translate(32.3469,469.4015)"><path
             d="M 0,0 84.177,-87.849 V 262.087 L 0,172.193 Z"
             style="fill:#f8bb0a;fill-opacity:1;fill-rule:nonzero;stroke:none"
             id="path30"
             inkscape:connector-curvature="0" /></g><g
           id="g32"
           transform="translate(28.4729,643.1247)"><path
             d="m 0,0 88.051,94.031 v 0 5.84 L -3.874,1.531 v -178.366 l 91.925,-95.946 v 5.61 L 0,-175.28 Z"
             style="fill:#211d1d;fill-opacity:1;fill-rule:nonzero;stroke:none"
             id="path34"
             inkscape:connector-curvature="0" /></g><g
           id="g36"
           transform="translate(32.3469,469.4015)"><path
             d="m 0,0 v 172.193 l 84.177,89.894 v 5.667 L -3.874,173.723 V -1.556 l 88.051,-91.891 v 0 5.598 z"
             style="fill:#211d1d;fill-opacity:1;fill-rule:nonzero;stroke:none"
             id="path38"
             inkscape:connector-curvature="0" /></g><g
           id="g40"
           transform="translate(620.7987,1136.5232)"><path
             d="m 0,0 v -619.074 -502.072"
             style="fill:none;stroke:#417dc8;stroke-width:9.03899956;stroke-linecap:butt;stroke-linejoin:miter;stroke-miterlimit:10;stroke-dasharray:none;stroke-opacity:1"
             id="path42"
             inkscape:connector-curvature="0" /></g><g
           id="g44"
           transform="translate(721.5213,1136.5232)"><path
             d="M 0,0 V -1121.146"
             style="fill:none;stroke:#ed1b34;stroke-width:9.03899956;stroke-linecap:butt;stroke-linejoin:miter;stroke-miterlimit:10;stroke-dasharray:none;stroke-opacity:1"
             id="path46"
             inkscape:connector-curvature="0" /></g><g
           id="g48"
           transform="translate(620.7991,515.6105)"><path
             d="M 0,0 H -94.482 V 98.476 H -0.001"
             style="fill:none;stroke:#417dc8;stroke-width:9.03899956;stroke-linecap:butt;stroke-linejoin:miter;stroke-miterlimit:10;stroke-dasharray:none;stroke-opacity:1"
             id="path50"
             inkscape:connector-curvature="0" /></g><g
           id="g52"
           transform="translate(633.0662,614.0864)"><path
             d="M 0,0 H 14.635"
             style="fill:none;stroke:#417dc8;stroke-width:9.03899956;stroke-linecap:butt;stroke-linejoin:miter;stroke-miterlimit:10;stroke-dasharray:16.787, 7.748;stroke-dashoffset:0;stroke-opacity:1"
             id="path54"
             inkscape:connector-curvature="0" /></g><g
           id="g56"
           transform="translate(654.5881,614.0864)"><path
             d="M 0,0 H 14.635"
             style="fill:none;stroke:#417dc8;stroke-width:9.03899956;stroke-linecap:butt;stroke-linejoin:miter;stroke-miterlimit:10;stroke-dasharray:16.787, 7.748;stroke-dashoffset:0;stroke-opacity:1"
             id="path58"
             inkscape:connector-curvature="0" /></g><g
           id="g60"
           transform="translate(676.11,614.0864)"><path
             d="M 0,0 H 14.635"
             style="fill:none;stroke:#417dc8;stroke-width:9.03899956;stroke-linecap:butt;stroke-linejoin:miter;stroke-miterlimit:10;stroke-dasharray:16.787, 7.748;stroke-dashoffset:0;stroke-opacity:1"
             id="path62"
             inkscape:connector-curvature="0" /></g><g
           id="g64"
           transform="translate(697.632,614.0864)"><path
             d="M 0,0 H 14.635"
             style="fill:none;stroke:#417dc8;stroke-width:9.03899956;stroke-linecap:butt;stroke-linejoin:miter;stroke-miterlimit:10;stroke-dasharray:16.787, 7.748;stroke-dashoffset:0;stroke-opacity:1"
             id="path66"
             inkscape:connector-curvature="0" /></g><g
           id="g68"
           transform="translate(633.0662,515.6105)"><path
             d="M 0,0 H 14.635"
             style="fill:none;stroke:#417dc8;stroke-width:9.03899956;stroke-linecap:butt;stroke-linejoin:miter;stroke-miterlimit:10;stroke-dasharray:16.787, 7.748;stroke-dashoffset:0;stroke-opacity:1"
             id="path70"
             inkscape:connector-curvature="0" /></g><g
           id="g72"
           transform="translate(654.5881,515.6105)"><path
             d="M 0,0 H 14.635"
             style="fill:none;stroke:#417dc8;stroke-width:9.03899956;stroke-linecap:butt;stroke-linejoin:miter;stroke-miterlimit:10;stroke-dasharray:16.787, 7.748;stroke-dashoffset:0;stroke-opacity:1"
             id="path74"
             inkscape:connector-curvature="0" /></g><g
           id="g76"
           transform="translate(676.11,515.6105)"><path
             d="M 0,0 H 14.635"
             style="fill:none;stroke:#417dc8;stroke-width:9.03899956;stroke-linecap:butt;stroke-linejoin:miter;stroke-miterlimit:10;stroke-dasharray:16.787, 7.748;stroke-dashoffset:0;stroke-opacity:1"
             id="path78"
             inkscape:connector-curvature="0" /></g><g
           id="g80"
           transform="translate(1328.2189,375.9537)"><path
             d="M 0,0 V 0.001 Z"
             style="fill:#f8bb0a;fill-opacity:1;fill-rule:nonzero;stroke:none"
             id="path82"
             inkscape:connector-curvature="0" /></g><g
           id="g84"
           transform="translate(1412.3961,469.4015)"><path
             d="M 0,0 -84.177,-87.849 V 262.087 L 0,172.193 Z"
             style="fill:#45bb3a;fill-opacity:1;fill-rule:nonzero;stroke:none"
             id="path86"
             inkscape:connector-curvature="0" /></g><g
           id="g88"
           transform="translate(1416.27,643.1247)"><path
             d="m 0,0 -88.051,94.031 v 0 5.84 L 3.874,1.531 v -178.366 l -91.925,-95.946 v 5.61 L 0,-175.28 Z"
             style="fill:#211d1d;fill-opacity:1;fill-rule:nonzero;stroke:none"
             id="path90"
             inkscape:connector-curvature="0" /></g><g
           id="g92"
           transform="translate(1412.3961,469.4015)"><path
             d="m 0,0 v 172.193 l -84.177,89.894 v 5.667 L 3.874,173.723 V -1.556 l -88.051,-91.891 v 0 5.598 z"
             style="fill:#211d1d;fill-opacity:1;fill-rule:nonzero;stroke:none"
             id="path94"
             inkscape:connector-curvature="0" /></g><g
           id="g96"
           transform="translate(823.9443,1136.5232)"><path
             d="m 0,0 v -619.074 -502.072"
             style="fill:none;stroke:#417dc8;stroke-width:9.03899956;stroke-linecap:butt;stroke-linejoin:miter;stroke-miterlimit:10;stroke-dasharray:none;stroke-opacity:1"
             id="path98"
             inkscape:connector-curvature="0" /></g><g
           id="g100"
           transform="translate(823.944,515.6105)"><path
             d="M 0,0 H 94.482 V 98.476 H 0.001"
             style="fill:none;stroke:#417dc8;stroke-width:9.03899956;stroke-linecap:butt;stroke-linejoin:miter;stroke-miterlimit:10;stroke-dasharray:none;stroke-opacity:1"
             id="path102"
             inkscape:connector-curvature="0" /></g><g
           id="g104"
           transform="translate(697.632,515.6105)"><path
             d="M 0,0 H 14.635"
             style="fill:none;stroke:#417dc8;stroke-width:9.03899956;stroke-linecap:butt;stroke-linejoin:miter;stroke-miterlimit:10;stroke-dasharray:16.787, 7.748;stroke-dashoffset:0;stroke-opacity:1"
             id="path106"
             inkscape:connector-curvature="0" /></g><g
           id="g108"
           transform="translate(731.529,614.0864)"><path
             d="M 0,0 H 14.635"
             style="fill:none;stroke:#417dc8;stroke-width:9.03899956;stroke-linecap:butt;stroke-linejoin:miter;stroke-miterlimit:10;stroke-dasharray:16.787, 7.748;stroke-dashoffset:0;stroke-opacity:1"
             id="path110"
             inkscape:connector-curvature="0" /></g><g
           id="g112"
           transform="translate(753.0509,614.0864)"><path
             d="M 0,0 H 14.635"
             style="fill:none;stroke:#417dc8;stroke-width:9.03899956;stroke-linecap:butt;stroke-linejoin:miter;stroke-miterlimit:10;stroke-dasharray:16.787, 7.748;stroke-dashoffset:0;stroke-opacity:1"
             id="path114"
             inkscape:connector-curvature="0" /></g><g
           id="g116"
           transform="translate(774.5728,614.0864)"><path
             d="M 0,0 H 14.635"
             style="fill:none;stroke:#417dc8;stroke-width:9.03899956;stroke-linecap:butt;stroke-linejoin:miter;stroke-miterlimit:10;stroke-dasharray:16.787, 7.748;stroke-dashoffset:0;stroke-opacity:1"
             id="path118"
             inkscape:connector-curvature="0" /></g><g
           id="g120"
           transform="translate(796.0947,614.0864)"><path
             d="M 0,0 H 14.635"
             style="fill:none;stroke:#417dc8;stroke-width:9.03899956;stroke-linecap:butt;stroke-linejoin:miter;stroke-miterlimit:10;stroke-dasharray:16.787, 7.748;stroke-dashoffset:0;stroke-opacity:1"
             id="path122"
             inkscape:connector-curvature="0" /></g><g
           id="g124"
           transform="translate(731.529,515.6105)"><path
             d="M 0,0 H 14.635"
             style="fill:none;stroke:#417dc8;stroke-width:9.03899956;stroke-linecap:butt;stroke-linejoin:miter;stroke-miterlimit:10;stroke-dasharray:16.787, 7.748;stroke-dashoffset:0;stroke-opacity:1"
             id="path126"
             inkscape:connector-curvature="0" /></g><g
           id="g128"
           transform="translate(753.0509,515.6105)"><path
             d="M 0,0 H 14.635"
             style="fill:none;stroke:#417dc8;stroke-width:9.03899956;stroke-linecap:butt;stroke-linejoin:miter;stroke-miterlimit:10;stroke-dasharray:16.787, 7.748;stroke-dashoffset:0;stroke-opacity:1"
             id="path130"
             inkscape:connector-curvature="0" /></g><g
           id="g132"
           transform="translate(774.5728,515.6105)"><path
             d="M 0,0 H 14.635"
             style="fill:none;stroke:#417dc8;stroke-width:9.03899956;stroke-linecap:butt;stroke-linejoin:miter;stroke-miterlimit:10;stroke-dasharray:16.787, 7.748;stroke-dashoffset:0;stroke-opacity:1"
             id="path134"
             inkscape:connector-curvature="0" /></g><g
           id="g136"
           transform="translate(796.0947,515.6105)"><path
             d="M 0,0 H 14.635"
             style="fill:none;stroke:#417dc8;stroke-width:9.03899956;stroke-linecap:butt;stroke-linejoin:miter;stroke-miterlimit:10;stroke-dasharray:16.787, 7.748;stroke-dashoffset:0;stroke-opacity:1"
             id="path138"
             inkscape:connector-curvature="0" /></g><g
           id="g140"
           transform="translate(326.2713,881.4424)"><path
             d="m 0,0 c 0,-3.596 -2.915,-6.51 -6.51,-6.51 -3.596,0 -6.511,2.914 -6.511,6.51 0,3.596 2.915,6.51 6.511,6.51 C -2.915,6.51 0,3.596 0,0"
             style="fill:#1d1826;fill-opacity:1;fill-rule:nonzero;stroke:none"
             id="path142"
             inkscape:connector-curvature="0" /></g><g
           id="g144"
           transform="translate(303.7631,864.3904)"><path
             d="m 0,0 -3.262,-3.151 c -0.539,-0.521 -0.87,-1.22 -0.932,-1.966 l -0.43,-5.202 c -0.052,-0.304 -0.461,-0.369 -0.604,-0.095 l -3.754,7.171 c -0.24,0.39 -0.054,0.903 0.381,1.047 l 8.242,2.748 C -0.027,0.663 0.236,0.259 0,0 m -11.99,25.939 -9.989,-3.545 c -0.328,-0.116 -0.692,0.029 -0.85,0.34 l -0.541,1.067 c -0.264,0.555 0.026,1.215 0.613,1.395 l 7.637,2.344 c 1.244,0.382 2.587,-0.134 3.256,-1.249 0.079,-0.131 0.018,-0.301 -0.126,-0.352 m 45.306,-88.58 -15.812,8.206 c -0.245,0.127 -0.443,0.328 -0.568,0.574 l -13.69,26.955 1.948,16.811 c 0.063,0.544 0.295,1.054 0.664,1.458 l 5.95,6.526 c 1.756,1.927 2.112,4.75 0.887,7.052 L -3.078,34.584 c -1.986,3.734 -6.427,5.424 -10.394,3.956 L -30.02,32.416 c -0.509,-0.188 -0.74,-0.776 -0.496,-1.26 l 47.075,-93.4 c 0.114,-0.224 0.3,-0.404 0.528,-0.51 l 13.697,-6.412 c 0.415,-0.192 0.906,0.003 1.076,0.427 l 1.93,4.824 c 0.193,0.483 -0.012,1.034 -0.474,1.274"
             style="fill:#1d1826;fill-opacity:1;fill-rule:nonzero;stroke:none"
             id="path146"
             inkscape:connector-curvature="0" /></g><g
           id="g148"
           transform="translate(276.9756,883.6351)"><path
             d="m 0,0 13.366,-25.415 c 0.754,-1.434 0.949,-3.096 0.546,-4.665 l -3.229,-13.066 c -0.188,-0.735 -0.955,-1.163 -1.68,-0.937 l -14.278,4.849 c -0.539,0.168 -0.844,0.736 -0.686,1.277 l 1.393,3.623 c 0.245,0.839 0.145,1.742 -0.276,2.508 l -2.53,5.556 -5.612,-3.507 c -0.505,-0.282 -1.144,-0.077 -1.389,0.447 l -8.591,18.157 c -0.466,0.992 -0.15,2.176 0.748,2.805 l 9.874,7.661 c 2.263,1.595 4.156,2.25 7.813,2.523 C -0.874,2.088 -0.452,0.859 0,0"
             style="fill:#1d1826;fill-opacity:1;fill-rule:nonzero;stroke:none"
             id="path150"
             inkscape:connector-curvature="0" /></g><g
           id="g152"
           transform="translate(272.5385,840.4567)"><path
             d="m 0,0 c -0.094,-0.605 -0.261,-1.756 0.399,-1.962 l 10.208,-3.591 c 0.333,-0.117 0.694,0.077 0.78,0.419 l 0.664,2.636 c 0.081,0.324 -0.1,0.656 -0.417,0.762 L 1.026,2.071 C 0.787,2.151 0.094,0.605 0,0"
             style="fill:#1d1826;fill-opacity:1;fill-rule:nonzero;stroke:none"
             id="path154"
             inkscape:connector-curvature="0" /></g><g
           id="g156"
           transform="translate(272.6613,836.863)"><path
             d="m 0,0 10.077,-3.359 c 0.28,-0.093 0.447,-0.38 0.39,-0.669 l -2.18,-11.123 c -0.566,-2.884 0.257,-6.206 2.494,-8.36 l -0.112,-0.671 c 0,0 0,-0.317 -0.149,-0.361 -0.15,-0.043 -0.714,0.174 -0.714,0.174 l -15.312,5.272 c -0.13,0.044 -0.203,0.182 -0.167,0.315 l 4.945,18.391 C -0.643,-0.076 -0.31,0.103 0,0"
             style="fill:#1d1826;fill-opacity:1;fill-rule:nonzero;stroke:none"
             id="path158"
             inkscape:connector-curvature="0" /></g><g
           id="g160"
           transform="translate(263.4273,817.6299)"><path
             d="m 0,0 -1.291,-3.82 22.167,-7.802 7.425,3.39 -5.057,1.991 -3.659,-0.861 -9.254,2.582 -8.233,3.175 z"
             style="fill:#1d1826;fill-opacity:1;fill-rule:nonzero;stroke:none"
             id="path162"
             inkscape:connector-curvature="0" /></g><g
           id="g164"
           transform="translate(254.0303,868.2396)"><path
             d="M 0,0 5.432,-12.899 4.41,-13.38 c -3.007,-1.415 -6.57,-0.88 -9.029,1.355 l -0.445,0.404 4.607,11.616 C -0.376,0.201 -0.086,0.204 0,0"
             style="fill:#1d1826;fill-opacity:1;fill-rule:nonzero;stroke:none"
             id="path166"
             inkscape:connector-curvature="0" /></g><g
           id="g168"
           transform="translate(251.7656,869.1017)"><path
             d="m 0,0 -4.247,-11.491 c -0.093,-0.253 -0.37,-0.388 -0.627,-0.304 l -9.087,2.95 c -0.54,0.176 -1.103,0.273 -1.671,0.289 l -1.104,0.032 c -1.784,0.051 -3.536,-0.481 -4.991,-1.515 0,0 -0.515,-0.376 -0.629,-0.447 -0.115,-0.071 -0.449,0.066 -0.449,0.066 0,0 -0.167,0.079 -0.167,0.281 0,0.202 -0.013,0.185 0.158,0.623 1.177,3.012 5.835,14.92 6.197,15.647 0.125,0.25 0.414,0.362 0.677,0.268 L -0.276,0.59 C -0.036,0.505 0.088,0.239 0,0"
             style="fill:#1d1826;fill-opacity:1;fill-rule:nonzero;stroke:none"
             id="path170"
             inkscape:connector-curvature="0" /></g><g
           id="g172"
           transform="translate(232.7182,879.4786)"><path
             d="m 0,0 c 0.686,-0.323 1.574,-1.251 1.17,-2.139 -0.403,-0.888 -1.896,-3.954 -3.551,-7.748 -1.654,-3.793 -3.618,-8.792 -3.376,-10.003 0.242,-1.21 0.975,-2.431 0.834,-3.112 -0.133,-0.638 -0.525,-3.228 -1.574,-3.309 -1.049,-0.08 -2.058,2.058 -2.583,3.269 -0.524,1.211 -0.726,3.597 -0.201,5.027 0.524,1.43 3.793,8.209 4.358,10.065 0.565,1.857 2.261,6.288 2.482,6.941 C -1.937,0.484 0,0 0,0"
             style="fill:#1d1826;fill-opacity:1;fill-rule:nonzero;stroke:none"
             id="path174"
             inkscape:connector-curvature="0" /></g><g
           id="g176"
           transform="translate(306.3635,876.8152)"><path
             d="m 0,0 c 0,-4.547 -3.686,-8.232 -8.232,-8.232 -4.547,0 -8.232,3.685 -8.232,8.232 0,4.546 3.685,8.232 8.232,8.232 C -3.686,8.232 0,4.546 0,0"
             style="fill:#fab20b;fill-opacity:1;fill-rule:nonzero;stroke:none"
             id="path178"
             inkscape:connector-curvature="0" /></g><g
           id="g180"
           transform="translate(601.0428,602.5054)"><path
             d="m 0,0 c 1.706,-3.111 0.568,-7.016 -2.543,-8.723 -3.111,-1.707 -7.017,-0.568 -8.723,2.543 -1.707,3.111 -0.568,7.017 2.543,8.723 C -5.612,4.25 -1.706,3.111 0,0"
             style="fill:#1d1826;fill-opacity:1;fill-rule:nonzero;stroke:none"
             id="path182"
             inkscape:connector-curvature="0" /></g><g
           id="g184"
           transform="translate(590.4528,578.8981)"><path
             d="m 0,0 -0.989,-5.136 c -0.219,-0.706 -0.174,-1.468 0.127,-2.144 l 3.229,-5.336 c 0.1,-0.288 -0.223,-0.539 -0.477,-0.37 l -7.785,5.056 c -0.393,0.224 -0.475,0.755 -0.167,1.087 l 5.489,7.15 C -0.338,0.561 0.081,0.336 0,0 m -24.316,14.191 -4.38,-5.849 c -0.229,-0.257 -0.613,-0.304 -0.897,-0.11 l -0.974,0.666 c -0.492,0.355 -0.554,1.064 -0.131,1.499 l 2.914,3.694 c 0.895,0.921 2.302,1.112 3.41,0.465 0.131,-0.076 0.158,-0.252 0.058,-0.365 m 95.769,-59.46 -21.14,-0.519 c -0.272,-0.006 -0.539,0.073 -0.764,0.226 L 17.015,-23.351 9.416,-4.789 c -0.204,0.501 -0.245,1.052 -0.118,1.577 l 0.979,2.767 C 12.106,4.681 8.824,8.49 6.672,9.9 l -25.45,16.787 c -3.491,2.288 -10.5,2.023 -13.236,-1.13 l -9.908,-12.179 c -0.35,-0.404 -0.271,-1.023 0.169,-1.326 l 95.666,-65.02 c 0.205,-0.141 0.451,-0.208 0.699,-0.191 L 72.1,-53.428 c 0.45,0.03 0.782,0.432 0.728,0.88 l -0.361,6.402 c -0.062,0.509 -0.501,0.889 -1.014,0.877"
             style="fill:#1d1826;fill-opacity:1;fill-rule:nonzero;stroke:none"
             id="path186"
             inkscape:connector-curvature="0" /></g><g
           id="g188"
           transform="translate(586.0146,590.2798)"><path
             d="m 0,0 c 2.132,-3.887 0.709,-8.767 -3.178,-10.899 -3.887,-2.132 -8.766,-0.709 -10.898,3.178 -2.132,3.887 -0.71,8.766 3.177,10.899 C -7.012,5.31 -2.132,3.887 0,0"
             style="fill:#fab20b;fill-opacity:1;fill-rule:nonzero;stroke:none"
             id="path190"
             inkscape:connector-curvature="0" /></g><g
           id="g192"
           transform="translate(401.9741,880.1268)"><path
             d="m 0,0 c -0.317,-3.582 2.33,-6.742 5.912,-7.058 3.581,-0.317 6.742,2.33 7.058,5.911 C 13.287,2.435 10.64,5.595 7.058,5.912 3.477,6.228 0.317,3.582 0,0"
             style="fill:#1d1826;fill-opacity:1;fill-rule:nonzero;stroke:none"
             id="path194"
             inkscape:connector-curvature="0" /></g><g
           id="g196"
           transform="translate(422.3309,862.0498)"><path
             d="m 0,0 7.968,-3.435 c 0.42,-0.181 0.561,-0.703 0.287,-1.068 l -4.37,-6.759 C 3.718,-11.52 3.316,-11.42 3.292,-11.114 l 0.029,5.177 c 0.004,0.743 -0.264,1.463 -0.755,2.024 l -2.972,3.399 C -0.619,-0.237 -0.321,0.139 0,0 m 13.727,24.429 c 0.764,1.044 2.148,1.436 3.353,0.95 l 7.401,-2.983 c 0.569,-0.23 0.8,-0.907 0.488,-1.432 l -0.633,-1.007 c -0.184,-0.294 -0.56,-0.406 -0.877,-0.262 l -9.638,4.375 c -0.138,0.063 -0.184,0.237 -0.094,0.359 m -53.42,-85.149 1.497,-4.936 c 0.132,-0.434 0.604,-0.67 1.034,-0.516 l 14.208,5.14 c 0.237,0.084 0.439,0.246 0.572,0.458 l 55.117,88.181 c 0.286,0.457 0.107,1.059 -0.383,1.289 L 16.407,36.393 C 12.585,38.19 8.013,36.908 5.705,33.392 L -12.617,5.478 c -1.422,-2.168 -1.317,-4.989 0.263,-7.046 l 5.352,-6.968 c 0.332,-0.432 0.518,-0.957 0.533,-1.499 l 0.46,-16.783 -16.01,-25.44 c -0.146,-0.232 -0.362,-0.413 -0.617,-0.517 l -16.473,-6.728 c -0.482,-0.197 -0.734,-0.723 -0.584,-1.217"
             style="fill:#1d1826;fill-opacity:1;fill-rule:nonzero;stroke:none"
             id="path198"
             inkscape:connector-curvature="0" /></g><g
           id="g200"
           transform="translate(450.3029,878.8754)"><path
             d="m 0,0 -15.553,-24.139 c -0.877,-1.362 -1.217,-3.001 -0.954,-4.599 l 2.066,-13.299 c 0.123,-0.749 0.848,-1.243 1.591,-1.082 l 14.65,3.573 c 0.551,0.12 0.905,0.658 0.796,1.212 l -1.07,3.731 c -0.169,0.858 0.01,1.748 0.497,2.474 l 3.009,5.311 5.281,-3.987 c 0.479,-0.326 1.133,-0.177 1.423,0.323 l 10.157,17.33 c 0.551,0.947 0.341,2.154 -0.498,2.86 l -9.161,8.501 C 10.12,-0.003 8.292,0.816 4.674,1.41 1.055,2.003 0.526,0.816 0,0"
             style="fill:#1d1826;fill-opacity:1;fill-rule:nonzero;stroke:none"
             id="path202"
             inkscape:connector-curvature="0" /></g><g
           id="g204"
           transform="translate(450.9203,835.4739)"><path
             d="m 0,0 c 0.04,-0.611 0.105,-1.773 -0.57,-1.92 l -10.485,-2.677 c -0.342,-0.087 -0.685,0.138 -0.74,0.486 l -0.429,2.684 c -0.053,0.33 0.158,0.645 0.483,0.722 L -0.839,2.153 C -0.594,2.212 -0.04,0.611 0,0"
             style="fill:#1d1826;fill-opacity:1;fill-rule:nonzero;stroke:none"
             id="path206"
             inkscape:connector-curvature="0" /></g><g
           id="g208"
           transform="translate(450.4815,831.905)"><path
             d="m 0,0 -10.334,-2.459 c -0.287,-0.068 -0.478,-0.338 -0.447,-0.632 l 1.192,-11.271 c 0.309,-2.923 -0.803,-6.159 -3.221,-8.108 l 0.052,-0.679 c 0,0 -0.027,-0.315 0.118,-0.372 0.145,-0.056 0.726,0.11 0.726,0.11 l 15.716,3.903 c 0.134,0.033 0.219,0.164 0.195,0.3 L 0.691,-0.454 C 0.634,-0.132 0.318,0.076 0,0"
             style="fill:#1d1826;fill-opacity:1;fill-rule:nonzero;stroke:none"
             id="path210"
             inkscape:connector-curvature="0" /></g><g
           id="g212"
           transform="translate(457.9859,811.9335)"><path
             d="m 0,0 0.95,-3.919 -22.769,-5.819 -7.097,4.03 5.213,1.538 3.569,-1.18 9.446,1.758 8.479,2.437 z"
             style="fill:#1d1826;fill-opacity:1;fill-rule:nonzero;stroke:none"
             id="path214"
             inkscape:connector-curvature="0" /></g><g
           id="g216"
           transform="translate(471.8032,861.519)"><path
             d="m 0,0 -6.546,-12.371 0.975,-0.569 c 2.871,-1.674 6.467,-1.455 9.113,0.555 l 0.479,0.363 -3.566,11.977 C 0.392,0.167 0.104,0.196 0,0"
             style="fill:#1d1826;fill-opacity:1;fill-rule:nonzero;stroke:none"
             id="path218"
             inkscape:connector-curvature="0" /></g><g
           id="g220"
           transform="translate(474.1351,862.1783)"><path
             d="m 0,0 3.218,-11.82 c 0.071,-0.261 0.335,-0.419 0.598,-0.359 l 9.312,2.139 c 0.553,0.127 1.122,0.175 1.689,0.141 l 1.103,-0.066 c 1.782,-0.106 3.48,-0.79 4.839,-1.948 0,0 0.479,-0.42 0.587,-0.501 0.108,-0.08 0.453,0.026 0.453,0.026 0,0 0.173,0.065 0.191,0.266 0.018,0.201 0.029,0.183 -0.103,0.634 -0.907,3.104 -4.498,15.376 -4.795,16.132 -0.102,0.26 -0.38,0.397 -0.65,0.327 L 0.327,0.564 C 0.08,0.5 -0.067,0.246 0,0"
             style="fill:#1d1826;fill-opacity:1;fill-rule:nonzero;stroke:none"
             id="path222"
             inkscape:connector-curvature="0" /></g><g
           id="g224"
           transform="translate(494.0223,870.8375)"><path
             d="m 0,0 c -0.712,-0.261 -1.678,-1.108 -1.354,-2.027 0.324,-0.92 1.541,-4.107 2.855,-8.031 1.314,-3.924 2.83,-9.077 2.482,-10.261 -0.348,-1.185 -1.185,-2.337 -1.105,-3.027 0.076,-0.647 0.239,-3.262 1.277,-3.434 1.038,-0.173 2.231,1.868 2.86,3.028 0.629,1.16 1.04,3.518 0.644,4.989 -0.397,1.471 -3.056,8.512 -3.455,10.411 C 3.805,-6.454 2.505,-1.89 2.343,-1.22 1.972,0.312 0,0 0,0"
             style="fill:#1d1826;fill-opacity:1;fill-rule:nonzero;stroke:none"
             id="path226"
             inkscape:connector-curvature="0" /></g><g
           id="g228"
           transform="translate(420.4286,874.6699)"><path
             d="M 0,0 C -0.4,-4.529 2.946,-8.525 7.475,-8.925 12.004,-9.325 16,-5.979 16.4,-1.45 16.801,3.079 13.454,7.075 8.925,7.475 4.396,7.876 0.4,4.529 0,0"
             style="fill:#42ba3b;fill-opacity:1;fill-rule:nonzero;stroke:none"
             id="path230"
             inkscape:connector-curvature="0" /></g><g
           id="g232"
           transform="translate(390.9447,840.7831)"><path
             d="m 0,0 c 0,-15.155 -12.286,-27.44 -27.44,-27.44 -15.155,0 -27.441,12.285 -27.441,27.44 0,15.155 12.286,27.44 27.441,27.44 C -12.286,27.44 0,15.155 0,0"
             style="fill:#ed1b34;fill-opacity:1;fill-rule:nonzero;stroke:none"
             id="path234"
             inkscape:connector-curvature="0" /></g><g
           id="g236"
           transform="translate(318.6348,341.7708)"><path
             d="m 0,0 c 0.541,-3.555 -1.901,-6.875 -5.456,-7.417 -3.554,-0.541 -6.875,1.902 -7.416,5.456 -0.542,3.555 1.901,6.875 5.455,7.417 C -3.862,5.997 -0.541,3.555 0,0"
             style="fill:#1d1826;fill-opacity:1;fill-rule:nonzero;stroke:none"
             id="path238"
             inkscape:connector-curvature="0" /></g><g
           id="g240"
           transform="translate(298.951,321.5238)"><path
             d="m 0,0 -2.75,-3.606 c -0.455,-0.596 -0.677,-1.337 -0.626,-2.085 l 0.358,-5.206 c -0.005,-0.309 -0.4,-0.435 -0.582,-0.186 l -4.791,6.525 c -0.296,0.349 -0.189,0.884 0.219,1.092 l 7.734,3.957 C -0.126,0.651 0.194,0.292 0,0 m -15.759,23.837 -9.342,-5.008 c -0.307,-0.165 -0.688,-0.076 -0.891,0.208 l -0.696,0.973 c -0.344,0.509 -0.157,1.205 0.397,1.472 l 7.196,3.467 c 1.172,0.565 2.578,0.257 3.408,-0.745 0.097,-0.117 0.062,-0.295 -0.072,-0.367 m 58.128,-80.747 -16.867,5.732 c -0.261,0.089 -0.488,0.257 -0.649,0.481 L 7.261,-26.111 6.655,-9.197 c -0.02,0.546 0.133,1.086 0.437,1.541 l 4.899,7.347 c 1.447,2.17 1.372,5.014 -0.185,7.105 L -8.25,33.726 c -2.527,3.392 -7.171,4.394 -10.872,2.346 L -34.56,27.526 c -0.474,-0.262 -0.614,-0.879 -0.3,-1.321 L 25.743,-59.04 c 0.147,-0.205 0.358,-0.355 0.599,-0.425 l 14.507,-4.277 c 0.439,-0.127 0.895,0.139 0.999,0.585 l 1.181,5.06 c 0.118,0.506 -0.167,1.02 -0.66,1.187"
             style="fill:#1d1826;fill-opacity:1;fill-rule:nonzero;stroke:none"
             id="path242"
             inkscape:connector-curvature="0" /></g><g
           id="g244"
           transform="translate(269.571,336.5153)"><path
             d="m 0,0 17.041,-23.112 c 0.961,-1.304 1.404,-2.918 1.242,-4.53 l -1.224,-13.403 c -0.076,-0.755 -0.769,-1.293 -1.52,-1.18 l -14.846,2.644 c -0.558,0.085 -0.945,0.6 -0.871,1.159 l 0.833,3.791 c 0.115,0.867 -0.12,1.744 -0.652,2.438 l -3.337,5.112 -5.02,-4.312 c -0.457,-0.355 -1.119,-0.248 -1.44,0.233 l -11.228,16.656 c -0.609,0.911 -0.476,2.128 0.317,2.886 l 8.608,9.06 c 1.998,1.918 3.77,2.851 7.344,3.671 C -1.179,1.933 -0.576,0.781 0,0"
             style="fill:#1d1826;fill-opacity:1;fill-rule:nonzero;stroke:none"
             id="path246"
             inkscape:connector-curvature="0" /></g><g
           id="g248"
           transform="translate(271.6866,293.161)"><path
             d="m 0,0 c -0.002,-0.613 0.007,-1.776 0.69,-1.88 l 10.632,-2.012 c 0.347,-0.066 0.675,0.181 0.709,0.532 l 0.259,2.705 c 0.031,0.333 -0.198,0.634 -0.528,0.691 L 0.702,2.202 C 0.454,2.245 0.002,0.613 0,0"
             style="fill:#1d1826;fill-opacity:1;fill-rule:nonzero;stroke:none"
             id="path250"
             inkscape:connector-curvature="0" /></g><g
           id="g252"
           transform="translate(272.3492,289.6268)"><path
             d="m 0,0 10.468,-1.803 c 0.29,-0.05 0.499,-0.308 0.486,-0.603 l -0.48,-11.324 c -0.125,-2.937 1.189,-6.097 3.725,-7.889 l -0.01,-0.681 c 0,0 0.048,-0.313 -0.094,-0.379 -0.141,-0.065 -0.731,0.064 -0.731,0.064 l -15.931,2.906 c -0.135,0.025 -0.229,0.15 -0.213,0.287 l 2.119,18.926 C -0.624,-0.172 -0.322,0.055 0,0"
             style="fill:#1d1826;fill-opacity:1;fill-rule:nonzero;stroke:none"
             id="path254"
             inkscape:connector-curvature="0" /></g><g
           id="g256"
           transform="translate(266.1167,269.2226)"><path
             d="m 0,0 -0.701,-3.971 23.089,-4.375 6.83,4.47 -5.3,1.206 -3.487,-1.402 -9.538,1.16 -8.616,1.898 z"
             style="fill:#1d1826;fill-opacity:1;fill-rule:nonzero;stroke:none"
             id="path258"
             inkscape:connector-curvature="0" /></g><g
           id="g260"
           transform="translate(249.2057,317.8401)"><path
             d="m 0,0 7.312,-11.934 -0.938,-0.629 c -2.759,-1.852 -6.362,-1.86 -9.13,-0.021 l -0.501,0.333 2.805,12.177 C -0.402,0.142 -0.116,0.189 0,0"
             style="fill:#1d1826;fill-opacity:1;fill-rule:nonzero;stroke:none"
             id="path262"
             inkscape:connector-curvature="0" /></g><g
           id="g264"
           transform="translate(246.837,318.3512)"><path
             d="m 0,0 -2.468,-11.999 c -0.054,-0.265 -0.308,-0.439 -0.574,-0.396 l -9.428,1.549 c -0.56,0.092 -1.131,0.103 -1.695,0.034 l -1.097,-0.135 c -1.771,-0.219 -3.423,-1.008 -4.706,-2.249 0,0 -0.452,-0.45 -0.554,-0.537 -0.103,-0.087 -0.454,-0.002 -0.454,-0.002 0,0 -0.177,0.053 -0.207,0.252 -0.031,0.2 -0.041,0.182 0.062,0.64 0.71,3.155 3.522,15.629 3.77,16.402 0.086,0.266 0.355,0.42 0.629,0.367 L -0.362,0.542 C -0.111,0.494 0.051,0.25 0,0"
             style="fill:#1d1826;fill-opacity:1;fill-rule:nonzero;stroke:none"
             id="path266"
             inkscape:connector-curvature="0" /></g><g
           id="g268"
           transform="translate(226.4442,325.7415)"><path
             d="M 0,0 C 0.727,-0.216 1.744,-1 1.479,-1.938 1.214,-2.877 0.2,-6.133 -0.865,-10.132 c -1.064,-4 -2.253,-9.237 -1.831,-10.398 0.422,-1.16 1.33,-2.257 1.293,-2.951 -0.035,-0.651 -0.033,-3.27 -1.058,-3.508 -1.025,-0.238 -2.344,1.725 -3.045,2.843 -0.701,1.117 -1.26,3.446 -0.957,4.938 0.304,1.493 2.514,8.687 2.793,10.608 0.279,1.92 1.289,6.556 1.408,7.235 C -1.988,0.187 0,0 0,0"
             style="fill:#1d1826;fill-opacity:1;fill-rule:nonzero;stroke:none"
             id="path270"
             inkscape:connector-curvature="0" /></g><g
           id="g272"
           transform="translate(299.6508,334.1985)"><path
             d="m 0,0 c 0.685,-4.495 -2.404,-8.693 -6.899,-9.378 -4.494,-0.685 -8.693,2.404 -9.378,6.899 -0.684,4.494 2.404,8.693 6.899,9.378 C -4.883,7.583 -0.685,4.495 0,0"
             style="fill:#fab20b;fill-opacity:1;fill-rule:nonzero;stroke:none"
             id="path274"
             inkscape:connector-curvature="0" /></g><g
           id="g276"
           transform="translate(392.2829,340.2437)"><path
             d="m 0,0 c -0.473,-3.641 2.12,-6.973 5.792,-7.442 3.672,-0.47 7.032,2.101 7.505,5.741 C 13.77,1.94 11.177,5.272 7.505,5.742 3.833,6.211 0.473,3.641 0,0"
             style="fill:#1d1826;fill-opacity:1;fill-rule:nonzero;stroke:none"
             id="path278"
             inkscape:connector-curvature="0" /></g><g
           id="g280"
           transform="translate(412.4845,320.9702)"><path
             d="m 0,0 8.057,-3.83 c 0.425,-0.202 0.548,-0.741 0.251,-1.101 l -4.774,-6.716 c -0.182,-0.256 -0.591,-0.138 -0.604,0.175 l 0.243,5.28 c 0.035,0.758 -0.212,1.503 -0.694,2.096 l -2.918,3.588 C -0.646,-0.217 -0.325,0.155 0,0 m 15.126,24.358 c 0.83,1.034 2.27,1.377 3.49,0.832 l 7.491,-3.346 c 0.576,-0.258 0.786,-0.958 0.444,-1.481 l -0.693,-1.002 c -0.202,-0.291 -0.592,-0.39 -0.913,-0.23 l -9.736,4.857 c -0.14,0.07 -0.18,0.249 -0.083,0.37 m -58.459,-84.673 1.338,-5.097 c 0.118,-0.448 0.594,-0.708 1.043,-0.568 l 14.829,4.661 c 0.247,0.077 0.461,0.233 0.607,0.444 l 60.33,87.697 c 0.312,0.454 0.153,1.075 -0.341,1.33 L 18.376,36.453 C 14.517,38.442 9.76,37.321 7.241,33.829 L -12.756,6.104 c -1.552,-2.153 -1.56,-5.035 -0.019,-7.198 l 5.22,-7.327 c 0.324,-0.454 0.494,-0.997 0.487,-1.551 l -0.216,-17.139 -17.517,-25.296 c -0.16,-0.23 -0.389,-0.406 -0.656,-0.502 l -17.225,-6.188 c -0.503,-0.181 -0.785,-0.708 -0.651,-1.218"
             style="fill:#1d1826;fill-opacity:1;fill-rule:nonzero;stroke:none"
             id="path282"
             inkscape:connector-curvature="0" /></g><g
           id="g284"
           transform="translate(441.9547,336.9887)"><path
             d="m 0,0 -16.993,-23.987 c -0.958,-1.353 -1.376,-3.011 -1.171,-4.653 l 1.579,-13.65 c 0.096,-0.77 0.822,-1.303 1.593,-1.169 l 15.219,3.045 c 0.572,0.099 0.958,0.635 0.869,1.203 l -0.947,3.85 c -0.139,0.882 0.081,1.783 0.612,2.504 l 3.315,5.295 5.27,-4.284 c 0.478,-0.352 1.157,-0.227 1.477,0.271 l 11.161,17.262 c 0.606,0.944 0.44,2.184 -0.395,2.938 l -9.076,9.047 C 10.412,-0.417 8.565,0.493 4.866,1.247 1.168,2 0.574,0.811 0,0"
             style="fill:#1d1826;fill-opacity:1;fill-rule:nonzero;stroke:none"
             id="path286"
             inkscape:connector-curvature="0" /></g><g
           id="g288"
           transform="translate(440.807,292.69)"><path
             d="m 0,0 c 0.017,-0.625 0.035,-1.812 -0.665,-1.935 l -10.898,-2.302 c -0.355,-0.075 -0.698,0.169 -0.741,0.527 l -0.331,2.755 c -0.041,0.338 0.188,0.651 0.526,0.717 L -0.775,2.231 C -0.521,2.28 -0.017,0.625 0,0"
             style="fill:#1d1826;fill-opacity:1;fill-rule:nonzero;stroke:none"
             id="path290"
             inkscape:connector-curvature="0" /></g><g
           id="g292"
           transform="translate(440.2089,289.0674)"><path
             d="m 0,0 -10.733,-2.085 c -0.298,-0.058 -0.506,-0.326 -0.486,-0.626 l 0.764,-11.547 c 0.198,-2.995 -1.08,-6.25 -3.648,-8.139 l 0.026,-0.695 c 0,0 -0.041,-0.32 0.106,-0.384 0.147,-0.063 0.752,0.082 0.752,0.082 l 16.33,3.338 c 0.139,0.029 0.231,0.159 0.212,0.298 L 0.692,-0.491 C 0.647,-0.161 0.33,0.064 0,0"
             style="fill:#1d1826;fill-opacity:1;fill-rule:nonzero;stroke:none"
             id="path294"
             inkscape:connector-curvature="0" /></g><g
           id="g296"
           transform="translate(447.1094,268.3875)"><path
             d="m 0,0 0.816,-4.037 -23.664,-5.004 -7.137,4.402 5.427,1.355 3.623,-1.349 9.791,1.406 8.824,2.139 z"
             style="fill:#1d1826;fill-opacity:1;fill-rule:nonzero;stroke:none"
             id="path298"
             inkscape:connector-curvature="0" /></g><g
           id="g300"
           transform="translate(463.3624,318.4035)"><path
             d="m 0,0 -7.243,-12.351 0.98,-0.62 c 2.884,-1.826 6.593,-1.75 9.399,0.192 l 0.507,0.351 -3.176,12.363 C 0.41,0.154 0.115,0.195 0,0"
             style="fill:#1d1826;fill-opacity:1;fill-rule:nonzero;stroke:none"
             id="path302"
             inkscape:connector-curvature="0" /></g><g
           id="g304"
           transform="translate(465.7886,318.9806)"><path
             d="m 0,0 2.826,-12.19 c 0.062,-0.268 0.327,-0.44 0.6,-0.39 l 9.668,1.801 c 0.575,0.107 1.162,0.132 1.744,0.074 l 1.132,-0.112 c 1.829,-0.182 3.548,-0.949 4.898,-2.185 0,0 0.476,-0.449 0.584,-0.535 0.108,-0.087 0.467,0.008 0.467,0.008 0,0 0.181,0.058 0.207,0.263 0.027,0.204 0.038,0.186 -0.079,0.651 -0.806,3.204 -3.997,15.869 -4.271,16.652 -0.094,0.27 -0.374,0.421 -0.656,0.36 L 0.36,0.562 C 0.103,0.507 -0.059,0.254 0,0"
             style="fill:#1d1826;fill-opacity:1;fill-rule:nonzero;stroke:none"
             id="path306"
             inkscape:connector-curvature="0" /></g><g
           id="g308"
           transform="translate(486.6053,326.9996)"><path
             d="m 0,0 c -0.743,-0.237 -1.772,-1.061 -1.476,-2.013 0.295,-0.951 1.416,-4.252 2.607,-8.308 1.191,-4.057 2.538,-9.375 2.132,-10.569 -0.407,-1.195 -1.315,-2.335 -1.261,-3.043 0.052,-0.663 0.112,-3.337 1.172,-3.556 1.061,-0.218 2.373,1.815 3.068,2.973 0.695,1.157 1.215,3.546 0.867,5.063 -0.348,1.516 -2.794,8.808 -3.127,10.761 C 3.649,-6.739 2.5,-2.031 2.361,-1.34 2.042,0.237 0,0 0,0"
             style="fill:#1d1826;fill-opacity:1;fill-rule:nonzero;stroke:none"
             id="path310"
             inkscape:connector-curvature="0" /></g><g
           id="g312"
           transform="translate(411.0457,333.9218)"><path
             d="m 0,0 c -0.598,-4.603 2.681,-8.817 7.324,-9.41 4.643,-0.594 8.892,2.656 9.49,7.26 C 17.412,2.453 14.133,6.666 9.49,7.26 4.847,7.854 0.598,4.603 0,0"
             style="fill:#42ba3b;fill-opacity:1;fill-rule:nonzero;stroke:none"
             id="path314"
             inkscape:connector-curvature="0" /></g><g
           id="g316"
           transform="translate(387.5012,302.9504)"><path
             d="m 0,0 c 0,-15.155 -12.286,-27.44 -27.44,-27.44 -15.155,0 -27.441,12.285 -27.441,27.44 0,15.155 12.286,27.44 27.441,27.44 C -12.286,27.44 0,15.155 0,0"
             style="fill:#ed1b34;fill-opacity:1;fill-rule:nonzero;stroke:none"
             id="path318"
             inkscape:connector-curvature="0" /></g><g
           id="g320"
           transform="translate(144.1645,505.4008)"><path
             d="m 0,0 h -11.632 c -0.502,0 -0.913,-0.398 -0.929,-0.9 l -0.308,-9.407 c -0.008,-0.264 0.038,-0.527 0.136,-0.772 l 0.344,-0.861 c 1.388,-3.468 4.29,-6.107 7.874,-7.159 l 1.935,-0.568 c 0.618,-0.182 1.25,0.24 1.319,0.881 L 0.7,-0.78 C 0.745,-0.364 0.419,0 0,0"
             style="fill:#211d1d;fill-opacity:1;fill-rule:nonzero;stroke:none"
             id="path322"
             inkscape:connector-curvature="0" /></g><g
           id="g324"
           transform="translate(154.3683,506.3155)"><path
             d="M 0,0 H 0.36 C 4.455,0 7.652,-3.54 7.236,-7.614 L 6.507,-14.743 H -8.558 l 0.789,7.728 C -7.361,-3.031 -4.005,0 0,0"
             style="fill:#211d1d;fill-opacity:1;fill-rule:nonzero;stroke:none"
             id="path326"
             inkscape:connector-curvature="0" /></g><g
           id="g328"
           transform="translate(158.0104,483.287)"><path
             d="m 0,0 h -10.923 c -1.225,0 -2.219,0.994 -2.219,2.219 v 1.964 c 0,1.226 0.994,2.22 2.219,2.22 L 0,6.403 c 1.226,0 2.219,-0.994 2.219,-2.22 V 2.219 C 2.219,0.994 1.226,0 0,0"
             style="fill:#211d1d;fill-opacity:1;fill-rule:nonzero;stroke:none"
             id="path330"
             inkscape:connector-curvature="0" /></g><g
           id="g332"
           transform="translate(157.1395,475.4456)"><path
             d="m 0,0 h -10.923 c -1.225,0 -2.219,0.994 -2.219,2.219 v 1.964 c 0,1.226 0.994,2.22 2.219,2.22 L 0,6.403 c 1.226,0 2.219,-0.994 2.219,-2.22 V 2.219 C 2.219,0.994 1.226,0 0,0"
             style="fill:#211d1d;fill-opacity:1;fill-rule:nonzero;stroke:none"
             id="path334"
             inkscape:connector-curvature="0" /></g><g
           id="g336"
           transform="translate(156.2515,467.5547)"><path
             d="m 0,0 h -10.923 c -1.225,0 -2.219,0.994 -2.219,2.219 v 1.964 c 0,1.226 0.994,2.22 2.219,2.22 L 0,6.403 c 1.226,0 2.219,-0.994 2.219,-2.22 V 2.219 C 2.219,0.994 1.226,0 0,0"
             style="fill:#211d1d;fill-opacity:1;fill-rule:nonzero;stroke:none"
             id="path338"
             inkscape:connector-curvature="0" /></g><g
           id="g340"
           transform="translate(157.0679,465.0197)"><path
             d="m 0,0 c 0.03,0.573 -0.421,1.056 -0.994,1.067 h -13.452 c -0.818,0.013 -1.238,-0.975 -0.661,-1.555 l 4.536,-4.557 c 0.323,-0.341 0.743,-0.574 1.203,-0.67 l 1.322,-0.274 c 0.48,-0.1 0.895,-0.531 0.895,-1.021 l -0.072,-2.767 c 0,-0.617 -0.095,-1.118 1.118,-1.118 h 0.241 c 1.113,0 1.083,0.556 1.083,1.298 v 2.496 c 0,0.515 0.554,1.032 1.016,1.26 l 0.945,0.468 c 1.302,0.644 2.652,2.153 2.728,3.603 z"
             style="fill:#211d1d;fill-opacity:1;fill-rule:nonzero;stroke:none"
             id="path342"
             inkscape:connector-curvature="0" /></g><g
           id="g344"
           transform="translate(171.0923,506.3155)"><path
             d="M 0,0 H 0.36 C 4.455,0 7.652,-3.54 7.236,-7.614 L 6.507,-14.743 H -8.558 l 0.789,7.728 C -7.361,-3.031 -4.005,0 0,0"
             style="fill:#211d1d;fill-opacity:1;fill-rule:nonzero;stroke:none"
             id="path346"
             inkscape:connector-curvature="0" /></g><g
           id="g348"
           transform="translate(175.2012,483.287)"><path
             d="m 0,0 h -10.923 c -1.225,0 -2.219,0.994 -2.219,2.219 v 1.964 c 0,1.226 0.994,2.22 2.219,2.22 L 0,6.403 c 1.226,0 2.219,-0.994 2.219,-2.22 V 2.219 C 2.219,0.994 1.226,0 0,0"
             style="fill:#211d1d;fill-opacity:1;fill-rule:nonzero;stroke:none"
             id="path350"
             inkscape:connector-curvature="0" /></g><g
           id="g352"
           transform="translate(174.3303,475.4456)"><path
             d="m 0,0 h -10.923 c -1.225,0 -2.219,0.994 -2.219,2.219 v 1.964 c 0,1.226 0.994,2.22 2.219,2.22 L 0,6.403 c 1.226,0 2.219,-0.994 2.219,-2.22 V 2.219 C 2.219,0.994 1.226,0 0,0"
             style="fill:#211d1d;fill-opacity:1;fill-rule:nonzero;stroke:none"
             id="path354"
             inkscape:connector-curvature="0" /></g><g
           id="g356"
           transform="translate(173.4422,467.5547)"><path
             d="m 0,0 h -10.923 c -1.225,0 -2.219,0.994 -2.219,2.219 v 1.964 c 0,1.226 0.994,2.22 2.219,2.22 L 0,6.403 c 1.226,0 2.219,-0.994 2.219,-2.22 V 2.219 C 2.219,0.994 1.226,0 0,0"
             style="fill:#211d1d;fill-opacity:1;fill-rule:nonzero;stroke:none"
             id="path358"
             inkscape:connector-curvature="0" /></g><g
           id="g360"
           transform="translate(174.4367,465.332)"><path
             d="M 0,0 C 0.03,0.573 -0.599,0.933 -1.172,0.943 L -14.624,0.754 c -0.818,0.014 -1.239,-0.974 -0.661,-1.555 0,0 2.726,-2.484 4.727,-4.425 0.872,-0.847 2.157,-0.213 2.202,-1.276 l -0.208,-3.587 c 0,-0.618 -0.096,-1.118 1.118,-1.118 h 0.24 c 1.114,0 1.083,0.555 1.083,1.298 v 2.495 c 0,0.515 0.527,0.82 0.988,1.049 l 2.137,0.679 c 1.327,0.46 2.652,2.342 2.728,3.793 z"
             style="fill:#211d1d;fill-opacity:1;fill-rule:nonzero;stroke:none"
             id="path362"
             inkscape:connector-curvature="0" /></g><g
           id="g364"
           transform="translate(164.1337,541.988)"><path
             d="m 0,0 c 0,-3.685 -2.987,-6.672 -6.672,-6.672 -3.685,0 -6.672,2.987 -6.672,6.672 0,3.685 2.987,6.672 6.672,6.672 C -2.987,6.672 0,3.685 0,0"
             style="fill:#211d1d;fill-opacity:1;fill-rule:nonzero;stroke:none"
             id="path366"
             inkscape:connector-curvature="0" /></g><g
           id="g368"
           transform="translate(198.8077,494.855)"><path
             d="M 0,0 C -0.743,0 -1.345,0.602 -1.345,1.345 -1.345,2.088 -0.743,2.69 0,2.69 0.743,2.69 1.345,2.088 1.345,1.345 1.345,0.602 0.743,0 0,0 m -2.69,5.058 c -0.743,0 -1.345,0.602 -1.345,1.345 0,0.743 0.602,1.345 1.345,1.345 0.743,0 1.345,-0.602 1.345,-1.345 0,-0.743 -0.602,-1.345 -1.345,-1.345 m -2.368,-7.425 c -0.743,0 -1.345,0.602 -1.345,1.345 0,0.743 0.602,1.345 1.345,1.345 0.743,0 1.345,-0.602 1.345,-1.345 0,-0.743 -0.602,-1.345 -1.345,-1.345 m -2.69,5.057 c -0.743,0 -1.345,0.603 -1.345,1.345 0,0.743 0.602,1.345 1.345,1.345 0.743,0 1.345,-0.602 1.345,-1.345 0,-0.742 -0.602,-1.345 -1.345,-1.345 m -2.529,5.327 c -0.743,0 -1.345,0.602 -1.345,1.345 0,0.743 0.602,1.345 1.345,1.345 0.743,0 1.345,-0.602 1.345,-1.345 0,-0.743 -0.602,-1.345 -1.345,-1.345 m -2.69,5.542 c -0.743,0 -1.345,0.602 -1.345,1.345 0,0.743 0.602,1.345 1.345,1.345 0.743,0 1.345,-0.602 1.345,-1.345 0,-0.743 -0.602,-1.345 -1.345,-1.345 m 5.058,5.057 c 0.743,0 1.345,-0.602 1.345,-1.345 0,-0.742 -0.602,-1.345 -1.345,-1.345 -0.743,0 -1.345,0.603 -1.345,1.345 0,0.743 0.602,1.345 1.345,1.345 m 2.69,-5.541 c 0.743,0 1.345,-0.603 1.345,-1.346 0,-0.742 -0.602,-1.345 -1.345,-1.345 -0.743,0 -1.345,0.603 -1.345,1.345 0,0.743 0.602,1.346 1.345,1.346 m -58.954,8.116 c -0.02,-0.349 -0.404,-0.549 -0.701,-0.367 l -1.317,0.721 c -0.689,0.377 -0.74,1.348 -0.094,1.796 l 1.428,0.988 c 0.403,0.279 0.949,-0.037 0.907,-0.526 z M 5.843,-0.266 0.112,10.783 0.269,13.075 5.439,28.196 C 5.754,29.118 5.208,30.112 4.26,30.34 L 2.487,30.765 C 1.462,31.011 0.429,30.395 0.157,29.378 L -3.139,17.05 -6.337,23.217 c -0.401,0.772 -1.337,1.095 -2.129,0.732 l -1.543,-0.708 -3.721,7.76 c -0.382,0.799 -1.022,1.447 -1.815,1.84 l -12.176,5.37 c -0.772,0.383 -2.839,0.582 -3.701,0.582 h -28.409 c -2.442,0 -6.574,-1.412 -8.359,-3.079 L -79.228,24.656 c -0.579,-0.541 -0.519,-1.476 0.124,-1.938 l 14.525,-10.44 35.846,0.986 0.246,13.919 8.254,-2.217 2.71,-5.543 -1.352,-0.647 c -0.817,-0.39 -1.159,-1.371 -0.763,-2.185 l 10.122,-20.819 -3.326,-9.485 -1.242,-0.466 c -0.481,-0.181 -0.923,-0.455 -1.298,-0.806 l -1.402,-1.315 -7.559,-23.722 c -0.269,-0.844 -1.039,-1.428 -1.925,-1.459 l -24.897,-0.874 c -0.964,-0.034 -1.737,-0.808 -1.769,-1.772 l -0.279,-8.358 c -0.018,-0.551 0.432,-1.003 0.983,-0.987 l 31.274,0.905 c 3.589,0.104 6.704,2.507 7.715,5.953 l 7.666,26.125 -0.481,2.326 c -0.17,0.821 -0.519,1.595 -1.022,2.266 l -1.083,1.445 1.847,6.528 11.41,5.433 c 0.834,0.397 1.172,1.406 0.747,2.225"
             style="fill:#211d1d;fill-opacity:1;fill-rule:nonzero;stroke:none"
             id="path370"
             inkscape:connector-curvature="0" /></g><g
           id="g372"
           transform="translate(163.5925,520.7352)"><path
             d="m 0,0 c 0,-4.591 -3.722,-8.313 -8.313,-8.313 -4.591,0 -8.313,3.722 -8.313,8.313 0,4.591 3.722,8.313 8.313,8.313 C -3.722,8.313 0,4.591 0,0"
             style="fill:#fabf0b;fill-opacity:1;fill-rule:nonzero;stroke:none"
             id="path374"
             inkscape:connector-curvature="0" /></g><g
           id="g376"
           transform="translate(558.8372,582.171)"><path
             d="m 0,0 20.909,-14.195 1.557,-1.421 c 2.164,-1.974 3.612,-4.611 4.115,-7.496 l 1.645,-9.431 -14.635,-2.905 -0.231,3.335 c -0.194,2.799 -1.454,5.416 -3.521,7.313 L 8.8,-23.848 c -0.696,0.639 -1.823,0.222 -1.936,-0.716 l -0.312,-2.595 c -0.061,-0.509 -0.565,-0.842 -1.057,-0.699 l -13.327,3.868 c -0.65,0.188 -1.072,0.814 -1.005,1.487 l 1.113,11.131 c 0.321,3.205 1.623,6.232 3.729,8.668 l 2.126,2.458 C -1.399,0.298 -0.595,0.404 0,0"
             style="fill:#1d1826;fill-opacity:1;fill-rule:nonzero;stroke:none"
             id="path378"
             inkscape:connector-curvature="0" /></g><g
           id="g380"
           transform="translate(550.9063,557.1609)"><path
             d="M 0,0 10.384,-3.497 9.093,-7.533 -1.56,-4.143 Z"
             style="fill:#1d1826;fill-opacity:1;fill-rule:nonzero;stroke:none"
             id="path382"
             inkscape:connector-curvature="0" /></g><g
           id="g384"
           transform="translate(550.1393,551.4297)"><path
             d="M 0,0 8.037,-2.795 C 8.509,-2.96 8.759,-3.475 8.595,-3.948 L 3.556,-18.461 c -0.28,-0.81 -1.208,-1.188 -1.975,-0.805 l -2.433,1.213 c -0.488,0.244 -1.074,-0.049 -1.173,-0.586 l -0.96,-5.232 c -0.102,-0.555 -0.586,-0.959 -1.151,-0.959 -0.878,0 -1.706,0.408 -2.241,1.104 l -0.132,0.171 c -0.382,0.497 -0.423,1.178 -0.102,1.717 l 2.243,3.775 c 0.28,0.471 -0.039,1.072 -0.587,1.104 l -1.46,0.083 c -0.547,0.031 -0.906,0.585 -0.712,1.097 l 5.74,15.131 C -1.177,-0.092 -0.562,0.195 0,0"
             style="fill:#1d1826;fill-opacity:1;fill-rule:nonzero;stroke:none"
             id="path386"
             inkscape:connector-curvature="0" /></g><g
           id="g388"
           transform="translate(575.881,545.3267)"><path
             d="M 0,0 0.363,-1.474 C 0.516,-2.097 1.13,-2.492 1.761,-2.373 l 8.294,1.566 c 0.624,0.117 1.037,0.716 0.925,1.342 l -0.296,1.65 C 10.603,2.639 10.166,2.938 9.714,2.85 L 0.697,1.092 C 0.196,0.994 -0.122,0.496 0,0"
             style="fill:#1d1826;fill-opacity:1;fill-rule:nonzero;stroke:none"
             id="path390"
             inkscape:connector-curvature="0" /></g><g
           id="g392"
           transform="translate(576.9247,540.6604)"><path
             d="m 0,0 2.632,-15.24 c 0.126,-0.726 0.884,-1.156 1.571,-0.891 l 2.438,0.941 0.584,-5.571 c 0.034,-0.318 0.223,-0.599 0.506,-0.749 0.724,-0.384 1.597,-0.351 2.29,0.086 l 0.01,0.007 c 0.541,0.341 0.789,1.001 0.606,1.614 l -1.467,4.935 3.256,0.254 c 0.837,0.065 1.422,0.856 1.239,1.676 L 10.384,1.735 C 10.246,2.352 9.651,2.753 9.027,2.649 L 0.921,1.298 C 0.307,1.196 -0.106,0.613 0,0"
             style="fill:#1d1826;fill-opacity:1;fill-rule:nonzero;stroke:none"
             id="path394"
             inkscape:connector-curvature="0" /></g><g
           id="g396"
           transform="translate(1118.4717,881.4424)"><path
             d="m 0,0 c 0,-3.596 2.915,-6.51 6.51,-6.51 3.596,0 6.511,2.914 6.511,6.51 0,3.596 -2.915,6.51 -6.511,6.51 C 2.915,6.51 0,3.596 0,0"
             style="fill:#1d1826;fill-opacity:1;fill-rule:nonzero;stroke:none"
             id="path398"
             inkscape:connector-curvature="0" /></g><g
           id="g400"
           transform="translate(1141.3389,864.9422)"><path
             d="M 0,0 8.242,-2.747 C 8.677,-2.892 8.863,-3.404 8.623,-3.795 L 4.869,-10.966 C 4.726,-11.24 4.317,-11.175 4.265,-10.87 l -0.43,5.201 c -0.062,0.747 -0.393,1.445 -0.932,1.966 l -3.262,3.151 C -0.595,-0.293 -0.332,0.111 0,0 m 11.505,25.739 c 0.669,1.115 2.012,1.631 3.256,1.249 l 7.637,-2.344 c 0.587,-0.18 0.877,-0.84 0.613,-1.395 L 22.47,22.182 c -0.158,-0.311 -0.522,-0.456 -0.85,-0.34 l -9.989,3.545 c -0.144,0.051 -0.205,0.221 -0.126,0.352 m -45.654,-90.205 1.93,-4.825 c 0.17,-0.424 0.661,-0.619 1.076,-0.427 l 13.697,6.412 c 0.228,0.106 0.414,0.286 0.528,0.511 l 47.075,93.399 c 0.244,0.484 0.013,1.072 -0.496,1.261 L 13.113,37.988 C 9.146,39.456 4.705,37.766 2.719,34.032 L -13.054,4.389 c -1.225,-2.301 -0.869,-5.125 0.887,-7.052 l 5.95,-6.525 c 0.369,-0.405 0.601,-0.915 0.664,-1.458 l 1.948,-16.812 -13.69,-26.955 c -0.125,-0.246 -0.323,-0.446 -0.568,-0.573 l -15.812,-8.207 c -0.462,-0.239 -0.667,-0.79 -0.474,-1.273"
             style="fill:#1d1826;fill-opacity:1;fill-rule:nonzero;stroke:none"
             id="path402"
             inkscape:connector-curvature="0" /></g><g
           id="g404"
           transform="translate(1167.7675,883.6351)"><path
             d="m 0,0 -13.366,-25.415 c -0.754,-1.434 -0.949,-3.096 -0.546,-4.665 l 3.229,-13.066 c 0.188,-0.735 0.955,-1.163 1.68,-0.937 l 14.278,4.849 c 0.539,0.168 0.844,0.736 0.686,1.277 l -1.393,3.623 c -0.245,0.839 -0.145,1.742 0.276,2.508 l 2.53,5.556 5.612,-3.507 c 0.505,-0.282 1.144,-0.077 1.389,0.447 l 8.591,18.157 c 0.466,0.992 0.15,2.176 -0.748,2.805 l -9.874,7.661 C 10.081,0.888 8.188,1.543 4.531,1.816 0.874,2.088 0.452,0.859 0,0"
             style="fill:#1d1826;fill-opacity:1;fill-rule:nonzero;stroke:none"
             id="path406"
             inkscape:connector-curvature="0" /></g><g
           id="g408"
           transform="translate(1172.2045,840.4567)"><path
             d="m 0,0 c 0.094,-0.605 0.261,-1.756 -0.399,-1.962 l -10.208,-3.591 c -0.333,-0.117 -0.694,0.077 -0.78,0.419 l -0.664,2.636 c -0.081,0.324 0.1,0.656 0.417,0.762 L -1.026,2.071 C -0.787,2.151 -0.094,0.605 0,0"
             style="fill:#1d1826;fill-opacity:1;fill-rule:nonzero;stroke:none"
             id="path410"
             inkscape:connector-curvature="0" /></g><g
           id="g412"
           transform="translate(1172.0817,836.863)"><path
             d="m 0,0 -10.077,-3.359 c -0.28,-0.093 -0.447,-0.38 -0.39,-0.669 l 2.18,-11.123 c 0.566,-2.884 -0.257,-6.206 -2.494,-8.36 l 0.112,-0.671 c 0,0 0,-0.317 0.149,-0.361 0.15,-0.043 0.714,0.174 0.714,0.174 l 15.312,5.272 c 0.13,0.044 0.203,0.182 0.167,0.315 L 0.728,-0.391 C 0.643,-0.076 0.31,0.103 0,0"
             style="fill:#1d1826;fill-opacity:1;fill-rule:nonzero;stroke:none"
             id="path414"
             inkscape:connector-curvature="0" /></g><g
           id="g416"
           transform="translate(1181.3157,817.6299)"><path
             d="m 0,0 1.291,-3.82 -22.167,-7.802 -7.425,3.39 5.057,1.991 3.659,-0.861 9.255,2.582 8.232,3.175 z"
             style="fill:#1d1826;fill-opacity:1;fill-rule:nonzero;stroke:none"
             id="path418"
             inkscape:connector-curvature="0" /></g><g
           id="g420"
           transform="translate(1190.7126,868.2396)"><path
             d="m 0,0 -5.432,-12.899 1.022,-0.481 c 3.007,-1.415 6.57,-0.88 9.029,1.355 l 0.445,0.404 -4.606,11.616 C 0.376,0.201 0.086,0.204 0,0"
             style="fill:#1d1826;fill-opacity:1;fill-rule:nonzero;stroke:none"
             id="path422"
             inkscape:connector-curvature="0" /></g><g
           id="g424"
           transform="translate(1192.9774,869.1017)"><path
             d="m 0,0 4.247,-11.491 c 0.093,-0.253 0.37,-0.388 0.627,-0.304 l 9.087,2.95 c 0.54,0.176 1.103,0.273 1.671,0.289 l 1.104,0.032 c 1.784,0.051 3.536,-0.481 4.991,-1.515 0,0 0.515,-0.376 0.629,-0.447 0.115,-0.071 0.449,0.066 0.449,0.066 0,0 0.167,0.079 0.167,0.281 0,0.202 0.013,0.185 -0.158,0.623 -1.177,3.012 -5.835,14.92 -6.197,15.647 -0.125,0.25 -0.414,0.362 -0.677,0.268 L 0.276,0.59 C 0.036,0.505 -0.089,0.239 0,0"
             style="fill:#1d1826;fill-opacity:1;fill-rule:nonzero;stroke:none"
             id="path426"
             inkscape:connector-curvature="0" /></g><g
           id="g428"
           transform="translate(1212.0248,879.4786)"><path
             d="m 0,0 c -0.686,-0.323 -1.574,-1.251 -1.17,-2.139 0.403,-0.888 1.896,-3.954 3.551,-7.748 1.654,-3.793 3.618,-8.792 3.376,-10.003 -0.242,-1.21 -0.975,-2.431 -0.834,-3.112 0.133,-0.638 0.525,-3.228 1.574,-3.309 1.049,-0.08 2.058,2.058 2.583,3.269 0.524,1.211 0.726,3.597 0.201,5.027 C 8.757,-16.585 5.488,-9.806 4.923,-7.95 4.358,-6.093 2.662,-1.662 2.441,-1.009 1.937,0.484 0,0 0,0"
             style="fill:#1d1826;fill-opacity:1;fill-rule:nonzero;stroke:none"
             id="path430"
             inkscape:connector-curvature="0" /></g><g
           id="g432"
           transform="translate(1138.3795,876.8152)"><path
             d="m 0,0 c 0,-4.547 3.686,-8.232 8.232,-8.232 4.547,0 8.232,3.685 8.232,8.232 0,4.546 -3.685,8.232 -8.232,8.232 C 3.686,8.232 0,4.546 0,0"
             style="fill:#44ba3b;fill-opacity:1;fill-rule:nonzero;stroke:none"
             id="path434"
             inkscape:connector-curvature="0" /></g><g
           id="g436"
           transform="translate(843.7002,602.5054)"><path
             d="M 0,0 C -1.707,-3.111 -0.568,-7.016 2.543,-8.723 5.654,-10.43 9.56,-9.291 11.266,-6.18 12.973,-3.069 11.834,0.837 8.723,2.543 5.612,4.25 1.706,3.111 0,0"
             style="fill:#1d1826;fill-opacity:1;fill-rule:nonzero;stroke:none"
             id="path438"
             inkscape:connector-curvature="0" /></g><g
           id="g440"
           transform="translate(854.8627,579.2051)"><path
             d="M 0,0 5.49,-7.15 C 5.797,-7.482 5.715,-8.013 5.322,-8.237 l -7.785,-5.056 c -0.254,-0.169 -0.577,0.082 -0.477,0.37 l 3.23,5.336 c 0.301,0.676 0.346,1.438 0.127,2.144 l -0.99,5.136 C -0.654,0.029 -0.235,0.254 0,0 m 23.801,14.249 c 1.109,0.647 2.516,0.456 3.411,-0.465 L 30.126,10.09 C 30.549,9.655 30.487,8.946 29.995,8.591 L 29.02,7.925 C 28.736,7.731 28.352,7.778 28.123,8.035 l -4.38,5.849 c -0.1,0.113 -0.072,0.289 0.058,0.365 m -96.84,-60.702 -0.361,-6.402 c -0.055,-0.448 0.278,-0.85 0.728,-0.88 l 17.488,0.269 c 0.247,-0.017 0.494,0.05 0.699,0.191 l 95.665,65.02 c 0.441,0.303 0.52,0.922 0.169,1.326 L 31.441,25.25 c -2.735,3.153 -9.745,3.418 -13.236,1.13 L -7.244,9.593 c -2.152,-1.41 -5.435,-5.219 -3.605,-10.345 l 0.978,-2.767 c 0.127,-0.525 0.086,-1.076 -0.117,-1.577 l -7.599,-18.562 -32.534,-22.211 c -0.225,-0.153 -0.492,-0.232 -0.764,-0.226 l -21.14,0.519 c -0.514,0.012 -0.952,-0.368 -1.014,-0.877"
             style="fill:#1d1826;fill-opacity:1;fill-rule:nonzero;stroke:none"
             id="path442"
             inkscape:connector-curvature="0" /></g><g
           id="g444"
           transform="translate(858.7284,590.2798)"><path
             d="m 0,0 c -2.132,-3.887 -0.709,-8.767 3.178,-10.899 3.887,-2.132 8.766,-0.709 10.898,3.178 2.132,3.887 0.71,8.766 -3.177,10.899 C 7.012,5.31 2.132,3.887 0,0"
             style="fill:#45bb3a;fill-opacity:1;fill-rule:nonzero;stroke:none"
             id="path446"
             inkscape:connector-curvature="0" /></g><g
           id="g448"
           transform="translate(1042.7689,880.1268)"><path
             d="m 0,0 c 0.317,-3.582 -2.33,-6.742 -5.912,-7.058 -3.581,-0.317 -6.742,2.33 -7.058,5.911 -0.317,3.582 2.33,6.742 5.912,7.059 C -3.477,6.228 -0.317,3.582 0,0"
             style="fill:#1d1826;fill-opacity:1;fill-rule:nonzero;stroke:none"
             id="path450"
             inkscape:connector-curvature="0" /></g><g
           id="g452"
           transform="translate(1022.8183,861.5359)"><path
             d="M 0,0 -2.972,-3.399 C -3.463,-3.96 -3.731,-4.68 -3.727,-5.423 l 0.029,-5.177 c -0.024,-0.306 -0.426,-0.406 -0.593,-0.148 l -4.37,6.759 c -0.274,0.365 -0.134,0.887 0.287,1.068 l 7.968,3.435 C -0.085,0.653 0.212,0.277 0,0 m -14.228,24.584 -9.638,-4.375 c -0.317,-0.144 -0.692,-0.032 -0.876,0.262 l -0.633,1.006 c -0.312,0.526 -0.081,1.203 0.488,1.433 l 7.4,2.983 c 1.206,0.486 2.589,0.094 3.354,-0.95 0.09,-0.122 0.044,-0.296 -0.095,-0.359 m 52.931,-83.573 -16.473,6.728 c -0.255,0.104 -0.471,0.285 -0.617,0.517 l -16.01,25.44 0.46,16.783 c 0.014,0.542 0.201,1.067 0.533,1.498 l 5.352,6.969 c 1.58,2.057 1.685,4.878 0.262,7.046 L -6.111,33.906 c -2.308,3.516 -6.881,4.798 -10.702,3.001 L -32.759,29.41 c -0.489,-0.23 -0.668,-0.832 -0.382,-1.289 L 21.976,-60.06 c 0.133,-0.213 0.334,-0.374 0.571,-0.459 l 14.209,-5.139 c 0.43,-0.154 0.902,0.082 1.033,0.516 l 1.498,4.936 c 0.15,0.494 -0.103,1.02 -0.584,1.217"
             style="fill:#1d1826;fill-opacity:1;fill-rule:nonzero;stroke:none"
             id="path454"
             inkscape:connector-curvature="0" /></g><g
           id="g456"
           transform="translate(994.4401,878.8754)"><path
             d="m 0,0 15.553,-24.139 c 0.877,-1.362 1.217,-3.001 0.954,-4.599 l -2.066,-13.299 c -0.123,-0.749 -0.848,-1.243 -1.591,-1.082 l -14.65,3.573 c -0.551,0.12 -0.905,0.658 -0.796,1.212 l 1.07,3.731 c 0.169,0.858 -0.01,1.748 -0.497,2.474 l -3.009,5.311 -5.281,-3.987 c -0.479,-0.326 -1.133,-0.177 -1.423,0.323 l -10.157,17.33 c -0.551,0.947 -0.341,2.154 0.498,2.86 l 9.161,8.501 c 2.114,1.788 3.942,2.607 7.56,3.201 C -1.055,2.003 -0.526,0.816 0,0"
             style="fill:#1d1826;fill-opacity:1;fill-rule:nonzero;stroke:none"
             id="path458"
             inkscape:connector-curvature="0" /></g><g
           id="g460"
           transform="translate(993.8227,835.4739)"><path
             d="m 0,0 c -0.041,-0.611 -0.105,-1.773 0.57,-1.92 l 10.485,-2.677 c 0.342,-0.087 0.685,0.138 0.74,0.486 l 0.429,2.684 c 0.053,0.33 -0.158,0.645 -0.483,0.722 L 0.839,2.153 C 0.594,2.212 0.04,0.611 0,0"
             style="fill:#1d1826;fill-opacity:1;fill-rule:nonzero;stroke:none"
             id="path462"
             inkscape:connector-curvature="0" /></g><g
           id="g464"
           transform="translate(994.2615,831.905)"><path
             d="m 0,0 10.334,-2.459 c 0.286,-0.068 0.478,-0.338 0.447,-0.632 L 9.589,-14.362 c -0.309,-2.923 0.803,-6.159 3.221,-8.108 l -0.052,-0.679 c 0,0 0.027,-0.315 -0.118,-0.372 -0.145,-0.056 -0.726,0.11 -0.726,0.11 l -15.716,3.903 c -0.134,0.033 -0.219,0.164 -0.195,0.3 l 3.306,18.754 C -0.634,-0.132 -0.318,0.076 0,0"
             style="fill:#1d1826;fill-opacity:1;fill-rule:nonzero;stroke:none"
             id="path466"
             inkscape:connector-curvature="0" /></g><g
           id="g468"
           transform="translate(986.7571,811.9335)"><path
             d="m 0,0 -0.95,-3.919 22.769,-5.819 7.097,4.03 -5.213,1.538 -3.569,-1.18 -9.446,1.758 -8.479,2.437 z"
             style="fill:#1d1826;fill-opacity:1;fill-rule:nonzero;stroke:none"
             id="path470"
             inkscape:connector-curvature="0" /></g><g
           id="g472"
           transform="translate(972.9398,861.519)"><path
             d="M 0,0 6.546,-12.371 5.571,-12.94 c -2.87,-1.674 -6.467,-1.455 -9.113,0.555 l -0.479,0.363 3.566,11.977 C -0.392,0.167 -0.103,0.196 0,0"
             style="fill:#1d1826;fill-opacity:1;fill-rule:nonzero;stroke:none"
             id="path474"
             inkscape:connector-curvature="0" /></g><g
           id="g476"
           transform="translate(970.6079,862.1783)"><path
             d="m 0,0 -3.218,-11.82 c -0.071,-0.261 -0.335,-0.419 -0.599,-0.359 l -9.311,2.139 c -0.553,0.127 -1.122,0.175 -1.689,0.141 l -1.103,-0.066 c -1.782,-0.106 -3.48,-0.79 -4.839,-1.948 0,0 -0.479,-0.42 -0.587,-0.501 -0.108,-0.08 -0.453,0.026 -0.453,0.026 0,0 -0.173,0.065 -0.191,0.266 -0.018,0.201 -0.029,0.183 0.103,0.634 0.907,3.104 4.498,15.376 4.795,16.132 0.102,0.26 0.38,0.397 0.65,0.327 L -0.327,0.564 C -0.08,0.5 0.067,0.246 0,0"
             style="fill:#1d1826;fill-opacity:1;fill-rule:nonzero;stroke:none"
             id="path478"
             inkscape:connector-curvature="0" /></g><g
           id="g480"
           transform="translate(950.7207,870.8375)"><path
             d="m 0,0 c 0.712,-0.261 1.678,-1.108 1.354,-2.027 -0.324,-0.92 -1.541,-4.107 -2.855,-8.031 -1.314,-3.924 -2.83,-9.077 -2.482,-10.261 0.348,-1.185 1.185,-2.337 1.105,-3.027 -0.076,-0.647 -0.239,-3.262 -1.277,-3.434 -1.038,-0.173 -2.231,1.868 -2.86,3.028 -0.629,1.16 -1.04,3.518 -0.644,4.989 0.397,1.471 3.056,8.512 3.455,10.411 0.399,1.898 1.699,6.462 1.861,7.132 C -1.972,0.312 0,0 0,0"
             style="fill:#1d1826;fill-opacity:1;fill-rule:nonzero;stroke:none"
             id="path482"
             inkscape:connector-curvature="0" /></g><g
           id="g484"
           transform="translate(1024.3145,874.6699)"><path
             d="m 0,0 c 0.4,-4.529 -2.946,-8.525 -7.475,-8.925 -4.529,-0.4 -8.525,2.946 -8.925,7.475 -0.401,4.529 2.946,8.525 7.475,8.925 C -4.396,7.876 -0.4,4.529 0,0"
             style="fill:#f9ae0b;fill-opacity:1;fill-rule:nonzero;stroke:none"
             id="path486"
             inkscape:connector-curvature="0" /></g><g
           id="g488"
           transform="translate(1053.7983,840.7831)"><path
             d="m 0,0 c 0,-15.155 12.286,-27.44 27.44,-27.44 15.155,0 27.441,12.285 27.441,27.44 0,15.155 -12.286,27.44 -27.441,27.44 C 12.286,27.44 0,15.155 0,0"
             style="fill:#ed1b34;fill-opacity:1;fill-rule:nonzero;stroke:none"
             id="path490"
             inkscape:connector-curvature="0" /></g><g
           id="g492"
           transform="translate(1126.1083,341.7708)"><path
             d="m 0,0 c -0.542,-3.555 1.901,-6.875 5.456,-7.417 3.554,-0.541 6.875,1.902 7.416,5.456 C 13.414,1.594 10.971,4.914 7.417,5.456 3.862,5.997 0.541,3.555 0,0"
             style="fill:#1d1826;fill-opacity:1;fill-rule:nonzero;stroke:none"
             id="path494"
             inkscape:connector-curvature="0" /></g><g
           id="g496"
           transform="translate(1146.23,322.0153)"><path
             d="M 0,0 7.734,-3.957 C 8.142,-4.166 8.249,-4.7 7.953,-5.05 L 3.162,-11.574 C 2.98,-11.823 2.585,-11.698 2.58,-11.389 l 0.358,5.207 c 0.051,0.748 -0.171,1.488 -0.626,2.084 l -2.75,3.607 C -0.632,-0.2 -0.312,0.16 0,0 m 15.249,23.713 c 0.83,1.002 2.236,1.309 3.408,0.744 l 7.196,-3.467 c 0.554,-0.266 0.741,-0.963 0.397,-1.471 L 25.554,18.546 C 25.351,18.262 24.97,18.173 24.663,18.338 l -9.342,5.008 c -0.134,0.072 -0.169,0.249 -0.072,0.367 m -58.716,-82.302 1.181,-5.06 c 0.104,-0.445 0.56,-0.712 0.999,-0.584 l 14.507,4.276 c 0.241,0.071 0.452,0.22 0.599,0.425 l 60.603,85.246 c 0.314,0.442 0.174,1.058 -0.3,1.321 L 18.684,35.58 c -3.7,2.049 -8.345,1.047 -10.872,-2.346 L -12.244,6.305 C -13.802,4.214 -13.875,1.369 -12.429,-0.8 l 4.899,-7.347 c 0.304,-0.456 0.457,-0.995 0.437,-1.542 l -0.606,-16.913 -17.592,-24.586 c -0.161,-0.224 -0.388,-0.393 -0.649,-0.481 l -16.867,-5.732 c -0.493,-0.168 -0.778,-0.681 -0.66,-1.188"
             style="fill:#1d1826;fill-opacity:1;fill-rule:nonzero;stroke:none"
             id="path498"
             inkscape:connector-curvature="0" /></g><g
           id="g500"
           transform="translate(1175.172,336.5153)"><path
             d="m 0,0 -17.041,-23.112 c -0.961,-1.304 -1.404,-2.918 -1.242,-4.53 l 1.224,-13.403 c 0.076,-0.755 0.769,-1.293 1.52,-1.18 l 14.846,2.644 c 0.558,0.085 0.945,0.6 0.871,1.159 l -0.833,3.791 c -0.115,0.867 0.12,1.744 0.652,2.438 l 3.337,5.112 5.02,-4.312 c 0.457,-0.355 1.119,-0.248 1.441,0.233 l 11.227,16.656 c 0.609,0.911 0.476,2.128 -0.317,2.886 l -8.608,9.06 C 10.099,-0.64 8.327,0.293 4.753,1.113 1.179,1.933 0.576,0.781 0,0"
             style="fill:#1d1826;fill-opacity:1;fill-rule:nonzero;stroke:none"
             id="path502"
             inkscape:connector-curvature="0" /></g><g
           id="g504"
           transform="translate(1173.0564,293.161)"><path
             d="m 0,0 c 0.002,-0.613 -0.007,-1.776 -0.69,-1.88 l -10.633,-2.012 c -0.346,-0.066 -0.674,0.181 -0.708,0.532 l -0.259,2.705 c -0.032,0.333 0.198,0.634 0.528,0.691 l 11.06,2.166 C -0.454,2.245 -0.002,0.613 0,0"
             style="fill:#1d1826;fill-opacity:1;fill-rule:nonzero;stroke:none"
             id="path506"
             inkscape:connector-curvature="0" /></g><g
           id="g508"
           transform="translate(1172.3938,289.6268)"><path
             d="m 0,0 -10.468,-1.803 c -0.29,-0.05 -0.499,-0.308 -0.486,-0.603 l 0.48,-11.324 c 0.125,-2.937 -1.189,-6.097 -3.725,-7.889 l 0.01,-0.681 c 0,0 -0.048,-0.313 0.094,-0.379 0.141,-0.065 0.731,0.064 0.731,0.064 l 15.931,2.906 c 0.135,0.025 0.229,0.15 0.213,0.287 L 0.661,-0.496 C 0.624,-0.172 0.322,0.055 0,0"
             style="fill:#1d1826;fill-opacity:1;fill-rule:nonzero;stroke:none"
             id="path510"
             inkscape:connector-curvature="0" /></g><g
           id="g512"
           transform="translate(1178.6263,269.2226)"><path
             d="m 0,0 0.701,-3.971 -23.089,-4.375 -6.83,4.47 5.299,1.206 3.488,-1.402 9.538,1.16 8.616,1.898 z"
             style="fill:#1d1826;fill-opacity:1;fill-rule:nonzero;stroke:none"
             id="path514"
             inkscape:connector-curvature="0" /></g><g
           id="g516"
           transform="translate(1195.5372,317.8401)"><path
             d="m 0,0 -7.312,-11.934 0.938,-0.629 c 2.759,-1.852 6.362,-1.86 9.13,-0.021 l 0.501,0.333 -2.805,12.177 C 0.402,0.142 0.116,0.189 0,0"
             style="fill:#1d1826;fill-opacity:1;fill-rule:nonzero;stroke:none"
             id="path518"
             inkscape:connector-curvature="0" /></g><g
           id="g520"
           transform="translate(1197.906,318.3512)"><path
             d="m 0,0 2.468,-11.999 c 0.054,-0.265 0.308,-0.439 0.574,-0.396 l 9.428,1.549 c 0.56,0.092 1.131,0.103 1.695,0.034 l 1.097,-0.135 c 1.771,-0.219 3.423,-1.008 4.706,-2.249 0,0 0.452,-0.45 0.554,-0.537 0.103,-0.087 0.454,-0.002 0.454,-0.002 0,0 0.177,0.053 0.207,0.252 0.031,0.2 0.041,0.182 -0.062,0.64 -0.71,3.155 -3.522,15.629 -3.77,16.402 -0.086,0.266 -0.355,0.42 -0.629,0.367 L 0.362,0.542 C 0.112,0.494 -0.051,0.25 0,0"
             style="fill:#1d1826;fill-opacity:1;fill-rule:nonzero;stroke:none"
             id="path522"
             inkscape:connector-curvature="0" /></g><g
           id="g524"
           transform="translate(1218.2988,325.7415)"><path
             d="m 0,0 c -0.727,-0.216 -1.744,-1 -1.479,-1.938 0.265,-0.939 1.279,-4.195 2.344,-8.194 1.064,-4 2.253,-9.237 1.831,-10.398 -0.422,-1.16 -1.33,-2.257 -1.293,-2.951 0.035,-0.651 0.033,-3.27 1.058,-3.508 1.025,-0.238 2.344,1.725 3.045,2.843 0.701,1.117 1.26,3.446 0.957,4.938 C 6.159,-17.715 3.949,-10.521 3.67,-8.6 3.391,-6.68 2.381,-2.044 2.262,-1.365 1.988,0.187 0,0 0,0"
             style="fill:#1d1826;fill-opacity:1;fill-rule:nonzero;stroke:none"
             id="path526"
             inkscape:connector-curvature="0" /></g><g
           id="g528"
           transform="translate(1145.0922,334.1985)"><path
             d="m 0,0 c -0.685,-4.495 2.404,-8.693 6.899,-9.378 4.494,-0.685 8.693,2.404 9.378,6.899 C 16.961,2.015 13.873,6.214 9.378,6.899 4.883,7.583 0.685,4.495 0,0"
             style="fill:#42ba3b;fill-opacity:1;fill-rule:nonzero;stroke:none"
             id="path530"
             inkscape:connector-curvature="0" /></g><g
           id="g532"
           transform="translate(1052.4601,340.2437)"><path
             d="m 0,0 c 0.473,-3.641 -2.12,-6.973 -5.792,-7.442 -3.672,-0.47 -7.032,2.101 -7.505,5.741 -0.473,3.641 2.12,6.973 5.792,7.443 C -3.833,6.211 -0.473,3.641 0,0"
             style="fill:#1d1826;fill-opacity:1;fill-rule:nonzero;stroke:none"
             id="path534"
             inkscape:connector-curvature="0" /></g><g
           id="g536"
           transform="translate(1032.6975,320.4626)"><path
             d="M 0,0 -2.918,-3.589 C -3.4,-4.182 -3.647,-4.927 -3.612,-5.685 l 0.243,-5.28 c -0.013,-0.312 -0.422,-0.431 -0.604,-0.174 l -4.774,6.715 c -0.297,0.361 -0.174,0.9 0.251,1.102 l 8.057,3.83 C -0.114,0.662 0.207,0.291 0,0 m -15.648,24.496 -9.736,-4.858 c -0.321,-0.16 -0.711,-0.061 -0.913,0.231 l -0.693,1.001 c -0.342,0.523 -0.132,1.224 0.444,1.481 l 7.491,3.346 c 1.22,0.545 2.66,0.202 3.49,-0.831 0.097,-0.122 0.057,-0.3 -0.083,-0.37 m 57.891,-83.086 -17.225,6.189 c -0.267,0.096 -0.496,0.271 -0.656,0.502 L 6.845,-26.604 6.629,-9.465 c -0.007,0.555 0.163,1.097 0.486,1.551 l 5.221,7.328 c 1.541,2.163 1.533,5.045 -0.019,7.198 L -7.68,34.337 c -2.519,3.492 -7.276,4.613 -11.135,2.623 l -16.097,-8.3 c -0.494,-0.255 -0.653,-0.876 -0.341,-1.33 l 60.331,-87.697 c 0.145,-0.211 0.359,-0.368 0.606,-0.444 l 14.83,-4.662 c 0.448,-0.139 0.924,0.121 1.042,0.569 l 1.338,5.096 c 0.134,0.511 -0.148,1.037 -0.651,1.218"
             style="fill:#1d1826;fill-opacity:1;fill-rule:nonzero;stroke:none"
             id="path538"
             inkscape:connector-curvature="0" /></g><g
           id="g540"
           transform="translate(1002.7883,336.9887)"><path
             d="m 0,0 16.993,-23.987 c 0.958,-1.353 1.376,-3.011 1.171,-4.653 l -1.579,-13.65 c -0.096,-0.77 -0.822,-1.303 -1.593,-1.169 l -15.219,3.045 c -0.572,0.099 -0.958,0.635 -0.869,1.203 l 0.947,3.85 c 0.139,0.882 -0.081,1.783 -0.612,2.504 l -3.315,5.295 -5.27,-4.284 c -0.478,-0.352 -1.157,-0.227 -1.477,0.271 l -11.162,17.262 c -0.605,0.944 -0.439,2.184 0.396,2.938 l 9.076,9.047 c 2.101,1.911 3.948,2.821 7.647,3.575 C -1.168,2 -0.574,0.811 0,0"
             style="fill:#1d1826;fill-opacity:1;fill-rule:nonzero;stroke:none"
             id="path542"
             inkscape:connector-curvature="0" /></g><g
           id="g544"
           transform="translate(1003.936,292.69)"><path
             d="m 0,0 c -0.017,-0.625 -0.035,-1.812 0.665,-1.935 l 10.898,-2.302 c 0.355,-0.075 0.698,0.169 0.741,0.527 l 0.331,2.755 c 0.041,0.338 -0.188,0.651 -0.526,0.717 L 0.775,2.231 C 0.521,2.28 0.017,0.625 0,0"
             style="fill:#1d1826;fill-opacity:1;fill-rule:nonzero;stroke:none"
             id="path546"
             inkscape:connector-curvature="0" /></g><g
           id="g548"
           transform="translate(1004.5341,289.0674)"><path
             d="m 0,0 10.733,-2.085 c 0.298,-0.058 0.506,-0.326 0.486,-0.626 l -0.763,-11.547 c -0.199,-2.995 1.079,-6.25 3.647,-8.139 l -0.026,-0.695 c 0,0 0.041,-0.32 -0.106,-0.384 -0.147,-0.063 -0.752,0.082 -0.752,0.082 l -16.33,3.338 c -0.139,0.029 -0.231,0.159 -0.212,0.298 l 2.631,19.267 C -0.647,-0.161 -0.33,0.064 0,0"
             style="fill:#1d1826;fill-opacity:1;fill-rule:nonzero;stroke:none"
             id="path550"
             inkscape:connector-curvature="0" /></g><g
           id="g552"
           transform="translate(997.6336,268.3875)"><path
             d="m 0,0 -0.816,-4.037 23.664,-5.004 7.137,4.402 -5.427,1.355 -3.623,-1.349 -9.791,1.406 -8.824,2.139 z"
             style="fill:#1d1826;fill-opacity:1;fill-rule:nonzero;stroke:none"
             id="path554"
             inkscape:connector-curvature="0" /></g><g
           id="g556"
           transform="translate(981.3807,318.4035)"><path
             d="m 0,0 7.243,-12.351 -0.98,-0.62 c -2.884,-1.826 -6.593,-1.75 -9.399,0.192 l -0.507,0.351 3.176,12.363 C -0.41,0.154 -0.115,0.195 0,0"
             style="fill:#1d1826;fill-opacity:1;fill-rule:nonzero;stroke:none"
             id="path558"
             inkscape:connector-curvature="0" /></g><g
           id="g560"
           transform="translate(978.9544,318.9806)"><path
             d="m 0,0 -2.826,-12.19 c -0.062,-0.268 -0.327,-0.44 -0.6,-0.39 l -9.668,1.801 c -0.575,0.107 -1.162,0.132 -1.744,0.074 l -1.132,-0.112 c -1.829,-0.182 -3.548,-0.949 -4.898,-2.185 0,0 -0.476,-0.449 -0.584,-0.535 -0.108,-0.087 -0.467,0.008 -0.467,0.008 0,0 -0.181,0.058 -0.207,0.263 -0.027,0.204 -0.038,0.186 0.079,0.651 0.806,3.204 3.997,15.869 4.271,16.652 0.094,0.27 0.374,0.421 0.656,0.36 L -0.36,0.562 C -0.103,0.507 0.059,0.254 0,0"
             style="fill:#1d1826;fill-opacity:1;fill-rule:nonzero;stroke:none"
             id="path562"
             inkscape:connector-curvature="0" /></g><g
           id="g564"
           transform="translate(958.1378,326.9996)"><path
             d="m 0,0 c 0.743,-0.237 1.772,-1.061 1.476,-2.013 -0.295,-0.951 -1.416,-4.252 -2.607,-8.308 -1.191,-4.057 -2.538,-9.375 -2.132,-10.569 0.407,-1.195 1.315,-2.335 1.261,-3.043 -0.052,-0.663 -0.112,-3.337 -1.172,-3.556 -1.061,-0.218 -2.373,1.815 -3.068,2.973 -0.695,1.157 -1.215,3.546 -0.867,5.063 0.348,1.516 2.794,8.808 3.127,10.761 0.333,1.953 1.482,6.661 1.621,7.352 C -2.042,0.237 0,0 0,0"
             style="fill:#1d1826;fill-opacity:1;fill-rule:nonzero;stroke:none"
             id="path566"
             inkscape:connector-curvature="0" /></g><g
           id="g568"
           transform="translate(1033.6974,333.9218)"><path
             d="m 0,0 c 0.598,-4.603 -2.681,-8.817 -7.324,-9.41 -4.643,-0.594 -8.892,2.656 -9.49,7.26 -0.598,4.603 2.681,8.816 7.324,9.41 C -4.847,7.854 -0.598,4.603 0,0"
             style="fill:#f9ae0b;fill-opacity:1;fill-rule:nonzero;stroke:none"
             id="path570"
             inkscape:connector-curvature="0" /></g><g
           id="g572"
           transform="translate(1300.5785,505.4008)"><path
             d="m 0,0 h 11.632 c 0.502,0 0.913,-0.398 0.929,-0.9 l 0.308,-9.407 c 0.008,-0.264 -0.038,-0.527 -0.136,-0.772 l -0.344,-0.861 c -1.388,-3.468 -4.29,-6.107 -7.874,-7.159 l -1.934,-0.568 c -0.619,-0.182 -1.251,0.24 -1.32,0.881 L -0.7,-0.78 C -0.745,-0.364 -0.419,0 0,0"
             style="fill:#211d1d;fill-opacity:1;fill-rule:nonzero;stroke:none"
             id="path574"
             inkscape:connector-curvature="0" /></g><g
           id="g576"
           transform="translate(1290.3746,506.3155)"><path
             d="m 0,0 h -0.36 c -4.095,0 -7.292,-3.54 -6.875,-7.614 l 0.728,-7.129 H 8.558 L 7.769,-7.015 C 7.361,-3.031 4.005,0 0,0"
             style="fill:#211d1d;fill-opacity:1;fill-rule:nonzero;stroke:none"
             id="path578"
             inkscape:connector-curvature="0" /></g><g
           id="g580"
           transform="translate(1286.7325,483.287)"><path
             d="m 0,0 h 10.923 c 1.225,0 2.219,0.994 2.219,2.219 v 1.964 c 0,1.226 -0.994,2.22 -2.219,2.22 L 0,6.403 c -1.226,0 -2.219,-0.994 -2.219,-2.22 V 2.219 C -2.219,0.994 -1.226,0 0,0"
             style="fill:#211d1d;fill-opacity:1;fill-rule:nonzero;stroke:none"
             id="path582"
             inkscape:connector-curvature="0" /></g><g
           id="g584"
           transform="translate(1287.6035,475.4456)"><path
             d="m 0,0 h 10.923 c 1.225,0 2.219,0.994 2.219,2.219 v 1.964 c 0,1.226 -0.994,2.22 -2.219,2.22 L 0,6.403 c -1.226,0 -2.219,-0.994 -2.219,-2.22 V 2.219 C -2.219,0.994 -1.226,0 0,0"
             style="fill:#211d1d;fill-opacity:1;fill-rule:nonzero;stroke:none"
             id="path586"
             inkscape:connector-curvature="0" /></g><g
           id="g588"
           transform="translate(1288.4916,467.5547)"><path
             d="m 0,0 h 10.923 c 1.225,0 2.219,0.994 2.219,2.219 v 1.964 c 0,1.226 -0.994,2.22 -2.219,2.22 L 0,6.403 c -1.226,0 -2.219,-0.994 -2.219,-2.22 V 2.219 C -2.219,0.994 -1.226,0 0,0"
             style="fill:#211d1d;fill-opacity:1;fill-rule:nonzero;stroke:none"
             id="path590"
             inkscape:connector-curvature="0" /></g><g
           id="g592"
           transform="translate(1287.675,465.0197)"><path
             d="m 0,0 c -0.03,0.573 0.421,1.056 0.994,1.067 h 13.452 c 0.818,0.013 1.239,-0.975 0.661,-1.555 L 10.571,-5.045 C 10.248,-5.386 9.828,-5.619 9.368,-5.715 L 8.046,-5.989 C 7.566,-6.089 7.151,-6.52 7.151,-7.01 l 0.072,-2.767 c 0,-0.617 0.095,-1.118 -1.118,-1.118 H 5.864 c -1.113,0 -1.083,0.556 -1.083,1.298 v 2.496 c 0,0.515 -0.554,1.032 -1.016,1.26 L 2.82,-5.373 C 1.518,-4.729 0.168,-3.22 0.092,-1.77 Z"
             style="fill:#211d1d;fill-opacity:1;fill-rule:nonzero;stroke:none"
             id="path594"
             inkscape:connector-curvature="0" /></g><g
           id="g596"
           transform="translate(1273.6506,506.3155)"><path
             d="m 0,0 h -0.36 c -4.095,0 -7.292,-3.54 -6.875,-7.614 l 0.728,-7.129 H 8.558 L 7.769,-7.015 C 7.361,-3.031 4.005,0 0,0"
             style="fill:#211d1d;fill-opacity:1;fill-rule:nonzero;stroke:none"
             id="path598"
             inkscape:connector-curvature="0" /></g><g
           id="g600"
           transform="translate(1269.5419,483.287)"><path
             d="m 0,0 h 10.923 c 1.225,0 2.219,0.994 2.219,2.219 v 1.964 c 0,1.226 -0.994,2.22 -2.219,2.22 L 0,6.403 c -1.226,0 -2.219,-0.994 -2.219,-2.22 V 2.219 C -2.219,0.994 -1.226,0 0,0"
             style="fill:#211d1d;fill-opacity:1;fill-rule:nonzero;stroke:none"
             id="path602"
             inkscape:connector-curvature="0" /></g><g
           id="g604"
           transform="translate(1270.4127,475.4456)"><path
             d="m 0,0 h 10.923 c 1.225,0 2.219,0.994 2.219,2.219 v 1.964 c 0,1.226 -0.994,2.22 -2.219,2.22 L 0,6.403 c -1.226,0 -2.219,-0.994 -2.219,-2.22 V 2.219 C -2.219,0.994 -1.226,0 0,0"
             style="fill:#211d1d;fill-opacity:1;fill-rule:nonzero;stroke:none"
             id="path606"
             inkscape:connector-curvature="0" /></g><g
           id="g608"
           transform="translate(1271.3008,467.5547)"><path
             d="m 0,0 h 10.923 c 1.225,0 2.219,0.994 2.219,2.219 v 1.964 c 0,1.226 -0.994,2.22 -2.219,2.22 L 0,6.403 c -1.226,0 -2.219,-0.994 -2.219,-2.22 V 2.219 C -2.219,0.994 -1.226,0 0,0"
             style="fill:#211d1d;fill-opacity:1;fill-rule:nonzero;stroke:none"
             id="path610"
             inkscape:connector-curvature="0" /></g><g
           id="g612"
           transform="translate(1270.3063,465.332)"><path
             d="M 0,0 C -0.03,0.573 0.599,0.933 1.172,0.943 L 14.624,0.754 c 0.818,0.014 1.239,-0.974 0.661,-1.555 0,0 -2.726,-2.484 -4.727,-4.425 C 9.686,-6.073 8.401,-5.439 8.356,-6.502 l 0.208,-3.587 c 0,-0.618 0.096,-1.118 -1.118,-1.118 h -0.24 c -1.114,0 -1.083,0.555 -1.083,1.298 v 2.495 c 0,0.515 -0.527,0.82 -0.988,1.049 l -2.137,0.679 c -1.327,0.46 -2.652,2.342 -2.728,3.793 z"
             style="fill:#211d1d;fill-opacity:1;fill-rule:nonzero;stroke:none"
             id="path614"
             inkscape:connector-curvature="0" /></g><g
           id="g616"
           transform="translate(1280.6093,541.988)"><path
             d="m 0,0 c 0,-3.685 2.987,-6.672 6.672,-6.672 3.685,0 6.672,2.987 6.672,6.672 0,3.685 -2.987,6.672 -6.672,6.672 C 2.987,6.672 0,3.685 0,0"
             style="fill:#211d1d;fill-opacity:1;fill-rule:nonzero;stroke:none"
             id="path618"
             inkscape:connector-curvature="0" /></g><g
           id="g620"
           transform="translate(1244.5901,496.2002)"><path
             d="M 0,0 C 0,0.743 0.602,1.345 1.345,1.345 2.088,1.345 2.69,0.743 2.69,0 2.69,-0.743 2.088,-1.345 1.345,-1.345 0.602,-1.345 0,-0.743 0,0 m 2.69,5.058 c 0,0.743 0.602,1.345 1.345,1.345 C 4.778,6.403 5.38,5.801 5.38,5.058 5.38,4.315 4.778,3.713 4.035,3.713 3.292,3.713 2.69,4.315 2.69,5.058 m 2.368,-7.425 c 0,0.742 0.602,1.345 1.345,1.345 0.743,0 1.345,-0.603 1.345,-1.345 0,-0.743 -0.602,-1.346 -1.345,-1.346 -0.743,0 -1.345,0.603 -1.345,1.346 m 2.69,5.057 c 0,0.743 0.602,1.345 1.345,1.345 0.743,0 1.345,-0.602 1.345,-1.345 0,-0.743 -0.602,-1.345 -1.345,-1.345 -0.743,0 -1.345,0.602 -1.345,1.345 m 2.529,5.327 c 0,0.743 0.602,1.345 1.345,1.345 0.743,0 1.345,-0.602 1.345,-1.345 0,-0.743 -0.602,-1.345 -1.345,-1.345 -0.743,0 -1.345,0.602 -1.345,1.345 m 2.69,5.542 c 0,0.743 0.602,1.345 1.345,1.345 0.743,0 1.345,-0.602 1.345,-1.345 0,-0.743 -0.602,-1.345 -1.345,-1.345 -0.743,0 -1.345,0.602 -1.345,1.345 M 10.6,15.926 c 0,-0.743 -0.603,-1.345 -1.345,-1.345 -0.743,0 -1.346,0.602 -1.346,1.345 0,0.743 0.603,1.345 1.346,1.345 0.742,0 1.345,-0.602 1.345,-1.345 M 7.909,10.384 c 0,-0.743 -0.602,-1.345 -1.345,-1.345 -0.743,0 -1.345,0.602 -1.345,1.345 0,0.743 0.602,1.345 1.345,1.345 0.743,0 1.345,-0.602 1.345,-1.345 m 57.386,12.074 c -0.042,0.489 0.504,0.805 0.907,0.526 l 1.428,-0.988 c 0.646,-0.448 0.595,-1.419 -0.094,-1.796 l -1.317,-0.721 c -0.297,-0.183 -0.681,0.018 -0.7,0.366 z M -3.751,-3.836 7.659,-9.269 9.507,-15.798 8.423,-17.242 C 7.92,-17.913 7.571,-18.687 7.401,-19.509 L 6.92,-21.834 14.586,-47.96 c 1.011,-3.445 4.126,-5.848 7.715,-5.952 l 31.274,-0.905 c 0.551,-0.016 1.001,0.436 0.983,0.987 l -0.279,8.358 c -0.032,0.964 -0.805,1.738 -1.769,1.772 l -24.897,0.873 c -0.886,0.032 -1.656,0.616 -1.925,1.46 l -7.559,23.722 -1.402,1.314 c -0.375,0.352 -0.816,0.626 -1.298,0.807 l -1.241,0.465 -3.326,9.486 10.122,20.819 c 0.396,0.814 0.053,1.795 -0.764,2.185 l -1.351,0.647 2.71,5.543 8.253,2.217 0.246,-13.92 35.846,-0.985 14.525,10.439 c 0.643,0.463 0.703,1.398 0.124,1.939 L 69.535,34.369 c -1.785,1.667 -5.916,3.079 -8.359,3.079 H 32.767 c -0.861,0 -2.929,-0.199 -3.701,-0.582 l -12.175,-5.37 c -0.794,-0.394 -1.433,-1.041 -1.816,-1.84 l -3.721,-7.76 -1.543,0.708 C 9.02,22.966 8.083,22.644 7.682,21.872 L 4.484,15.705 1.188,28.033 c -0.272,1.017 -1.305,1.633 -2.33,1.387 L -2.915,28.994 C -3.863,28.767 -4.409,27.773 -4.094,26.851 L 1.076,11.729 1.233,9.438 -4.498,-1.611 c -0.425,-0.819 -0.086,-1.828 0.747,-2.225"
             style="fill:#211d1d;fill-opacity:1;fill-rule:nonzero;stroke:none"
             id="path622"
             inkscape:connector-curvature="0" /></g><g
           id="g624"
           transform="translate(1281.1505,520.7352)"><path
             d="m 0,0 c 0,-4.591 3.722,-8.313 8.313,-8.313 4.591,0 8.313,3.722 8.313,8.313 0,4.591 -3.722,8.313 -8.313,8.313 C 3.722,8.313 0,4.591 0,0"
             style="fill:#44ba3b;fill-opacity:1;fill-rule:nonzero;stroke:none"
             id="path626"
             inkscape:connector-curvature="0" /></g><g
           id="g628"
           transform="translate(885.9058,582.171)"><path
             d="m 0,0 -20.909,-14.195 -1.557,-1.421 c -2.164,-1.974 -3.612,-4.611 -4.115,-7.496 l -1.645,-9.431 14.635,-2.905 0.231,3.335 c 0.194,2.799 1.454,5.416 3.522,7.313 l 1.038,0.952 c 0.696,0.639 1.823,0.222 1.936,-0.716 l 0.312,-2.595 c 0.061,-0.509 0.565,-0.842 1.057,-0.699 l 13.327,3.868 c 0.65,0.188 1.072,0.814 1.005,1.487 L 7.724,-11.372 C 7.403,-8.167 6.101,-5.14 3.995,-2.704 L 1.869,-0.246 C 1.399,0.298 0.595,0.404 0,0"
             style="fill:#1d1826;fill-opacity:1;fill-rule:nonzero;stroke:none"
             id="path630"
             inkscape:connector-curvature="0" /></g><g
           id="g632"
           transform="translate(893.8367,557.1609)"><path
             d="m 0,0 -10.384,-3.497 1.291,-4.036 10.653,3.39 z"
             style="fill:#1d1826;fill-opacity:1;fill-rule:nonzero;stroke:none"
             id="path634"
             inkscape:connector-curvature="0" /></g><g
           id="g636"
           transform="translate(894.6036,551.4297)"><path
             d="m 0,0 -8.037,-2.795 c -0.472,-0.165 -0.722,-0.68 -0.558,-1.153 l 5.039,-14.513 c 0.28,-0.81 1.208,-1.188 1.975,-0.805 l 2.433,1.213 c 0.488,0.244 1.074,-0.049 1.173,-0.586 l 0.96,-5.232 c 0.102,-0.555 0.586,-0.959 1.151,-0.959 0.878,0 1.706,0.408 2.241,1.104 l 0.132,0.171 c 0.382,0.497 0.423,1.178 0.102,1.717 l -2.243,3.775 c -0.28,0.471 0.039,1.072 0.587,1.104 l 1.46,0.083 c 0.547,0.031 0.906,0.585 0.712,1.097 L 1.387,-0.648 C 1.177,-0.092 0.562,0.195 0,0"
             style="fill:#1d1826;fill-opacity:1;fill-rule:nonzero;stroke:none"
             id="path638"
             inkscape:connector-curvature="0" /></g><g
           id="g640"
           transform="translate(868.8621,545.3267)"><path
             d="M 0,0 -0.363,-1.474 C -0.516,-2.097 -1.13,-2.492 -1.761,-2.373 l -8.294,1.566 c -0.624,0.117 -1.037,0.716 -0.925,1.342 l 0.296,1.65 c 0.081,0.454 0.518,0.753 0.97,0.665 L -0.697,1.092 C -0.196,0.994 0.122,0.496 0,0"
             style="fill:#1d1826;fill-opacity:1;fill-rule:nonzero;stroke:none"
             id="path642"
             inkscape:connector-curvature="0" /></g><g
           id="g644"
           transform="translate(867.8183,540.6604)"><path
             d="m 0,0 -2.632,-15.24 c -0.126,-0.726 -0.884,-1.156 -1.571,-0.891 l -2.438,0.941 -0.584,-5.571 c -0.034,-0.318 -0.223,-0.599 -0.506,-0.749 -0.724,-0.384 -1.597,-0.351 -2.29,0.086 l -0.01,0.007 c -0.541,0.341 -0.789,1.001 -0.606,1.614 l 1.467,4.935 -3.256,0.254 c -0.837,0.065 -1.422,0.856 -1.239,1.676 l 3.281,14.673 c 0.138,0.617 0.733,1.018 1.357,0.914 L -0.921,1.298 C -0.307,1.196 0.106,0.613 0,0"
             style="fill:#1d1826;fill-opacity:1;fill-rule:nonzero;stroke:none"
             id="path646"
             inkscape:connector-curvature="0" /></g></g></g><text
       transform="matrix(0.80795697,0.58924149,0.58924149,-0.80795697,865.1068,579.3143)"
       style="font-variant:normal;font-weight:bold;font-stretch:normal;font-size:17.24386406px;font-family:Helvetica;-inkscape-font-specification:Helvetica-Bold;writing-mode:lr-tb;fill:#110f0d;fill-opacity:1;fill-rule:nonzero;stroke:none"
       id="text650"><tspan
         x="0"
         y="0"
         id="tspan648">2</tspan></text>
<text
       transform="matrix(0.76456822,-0.64454282,-0.64454282,-0.76456822,570.9495,584.9932)"
       style="font-variant:normal;font-weight:bold;font-stretch:normal;font-size:17.24385071px;font-family:Helvetica;-inkscape-font-specification:Helvetica-Bold;writing-mode:lr-tb;fill:#110f0d;fill-opacity:1;fill-rule:nonzero;stroke:none"
       id="text654"><tspan
         x="0"
         y="0"
         id="tspan652">1</tspan></text>
<g
       id="g656"><g
         id="g658"
         clip-path="url(#clipPath662)"><g
           id="g664"
           transform="translate(1135.6646,71.483)"><path
             d="m 0,0 c 0,0.236 0.192,0.427 0.427,0.427 h 1.266 c 0.481,0 0.871,-0.39 0.871,-0.871 v -4.484 c 0,-0.481 -0.39,-0.871 -0.871,-0.871 H 0.427 C 0.192,-5.799 0,-5.608 0,-5.372 Z m -1.587,0.58 v -6.532 c 0,-0.329 0.129,-0.458 0.458,-0.458 h 2.84 c 0.876,0 1.586,0.71 1.586,1.585 v 4.277 c 0,0.876 -0.71,1.586 -1.586,1.586 h -2.84 c -0.329,0 -0.458,-0.129 -0.458,-0.458"
             style="fill:#211d1d;fill-opacity:1;fill-rule:nonzero;stroke:none"
             id="path666"
             inkscape:connector-curvature="0" /></g><g
           id="g668"
           transform="translate(1128.8883,71.3609)"><path
             d="M 0,0 C 0,0.335 0.214,0.549 0.549,0.549 H 2.747 C 3.082,0.549 3.297,0.335 3.297,0 V -1.897 C 2.635,-1.945 2.442,-2.375 2.442,-2.625 V -5.25 c 0,-0.236 -0.192,-0.427 -0.427,-0.427 H 0.549 C 0.214,-5.677 0,-5.463 0,-5.128 Z M -0.733,0.702 V -5.83 c 0,-0.329 0.129,-0.458 0.458,-0.458 h 3.846 c 0.329,0 0.458,0.129 0.458,0.458 V 0.702 C 4.029,1.031 3.9,1.16 3.571,1.16 h -3.846 c -0.329,0 -0.458,-0.129 -0.458,-0.458"
             style="fill:#211d1d;fill-opacity:1;fill-rule:nonzero;stroke:none"
             id="path670"
             inkscape:connector-curvature="0" /></g><g
           id="g672"
           transform="translate(1155.5084,72.0629)"><path
             d="M 0,0 V -6.532 C 0,-6.861 0.129,-6.99 0.458,-6.99 h 3.296 c 0.085,0 0.153,0.069 0.153,0.153 v 0.152 c 0,0.169 -0.259,0.306 -0.427,0.306 H 2.082 c -0.273,0 -0.495,0.221 -0.495,0.494 v 1.819 c 0,0.273 0.222,0.495 0.495,0.495 h 1.672 c 0.085,0 0.153,0.068 0.153,0.152 v 0.306 c 0,0.084 -0.068,0.152 -0.153,0.152 H 1.256 c -0.304,0 -0.523,0.219 -0.523,0.523 v 1.64 c 0,0.304 0.219,0.523 0.523,0.523 h 2.498 c 0.085,0 0.153,0.069 0.153,0.153 v 0.427 c 0,0.084 -0.068,0.153 -0.153,0.153 H 0.458 C 0.129,0.458 0,0.329 0,0"
             style="fill:#211d1d;fill-opacity:1;fill-rule:nonzero;stroke:none"
             id="path674"
             inkscape:connector-curvature="0" /></g><g
           id="g676"
           transform="translate(1139.9989,72.2155)"><path
             d="m 0,0 v -2.706 c 0,0 0.059,-0.205 0.134,-0.262 0.091,-0.07 0.21,-0.199 0.356,-0.321 0.38,-0.319 0.846,-0.754 0.853,-0.979 v -0.005 -2.623 c 0,-0.136 0.11,-0.247 0.247,-0.247 h 0.972 c 0.136,0 0.246,0.111 0.246,0.247 v 2.623 0.005 c 0.007,0.225 0.473,0.66 0.854,0.979 0.145,0.122 0.265,0.251 0.355,0.321 0.075,0.057 0.134,0.262 0.134,0.262 V 0 C 4.151,0.168 4.014,0.305 3.846,0.305 3.677,0.305 3.541,0.168 3.541,0 v -2.259 c 0,-0.389 -1.465,-1.343 -1.465,-1.343 0,0 -1.466,0.954 -1.466,1.343 L 0.61,0 C 0.61,0.168 0.474,0.305 0.305,0.305 0.137,0.305 0,0.168 0,0"
             style="fill:#211d1d;fill-opacity:1;fill-rule:nonzero;stroke:none"
             id="path678"
             inkscape:connector-curvature="0" /></g><g
           id="g680"
           transform="translate(1159.9208,72.2155)"><path
             d="m 0,0 v -2.706 c 0,0 0.059,-0.205 0.134,-0.262 0.091,-0.07 0.21,-0.199 0.356,-0.321 0.38,-0.319 0.846,-0.754 0.853,-0.979 v -0.005 -2.623 c 0,-0.136 0.11,-0.247 0.247,-0.247 h 0.972 c 0.136,0 0.246,0.111 0.246,0.247 v 2.623 0.005 c 0.007,0.225 0.473,0.66 0.853,0.979 0.146,0.122 0.266,0.251 0.356,0.321 0.075,0.057 0.134,0.262 0.134,0.262 V 0 C 4.151,0.168 4.014,0.305 3.846,0.305 3.677,0.305 3.541,0.168 3.541,0 v -2.259 c 0,-0.389 -1.465,-1.343 -1.465,-1.343 0,0 -1.466,0.954 -1.466,1.343 L 0.61,0 C 0.61,0.168 0.474,0.305 0.305,0.305 0.137,0.305 0,0.168 0,0"
             style="fill:#211d1d;fill-opacity:1;fill-rule:nonzero;stroke:none"
             id="path682"
             inkscape:connector-curvature="0" /></g><g
           id="g684"
           transform="translate(1154.3971,68.7359)"><path
             d="m 0,0 c 0,0 -0.001,-0.02 -0.002,0 z m -4.151,0.305 c 0,-0.335 0.214,-0.549 0.549,-0.549 h 2.32 c 0.236,0 0.427,-0.192 0.427,-0.428 v -1.953 c 0,-0.236 -0.191,-0.427 -0.427,-0.427 h -0.977 c -0.235,0 -0.427,0.191 -0.427,0.427 v 0.916 c 0,0.202 -0.164,0.366 -0.366,0.366 h -0.733 c -0.202,0 -0.366,-0.164 -0.366,-0.366 v -1.496 c 0,-0.329 0.129,-0.458 0.458,-0.458 h 3.235 C -0.129,-3.663 0,-3.534 0,-3.205 V 0 h -0.002 c -0.025,0.3 -0.233,0.488 -0.547,0.488 h -2.442 c -0.236,0 -0.428,0.192 -0.428,0.428 v 1.831 c 0,0.236 0.192,0.427 0.428,0.427 h 1.831 c 0.236,0 0.427,-0.191 0.427,-0.427 V 1.831 c 0,-0.202 0.165,-0.366 0.367,-0.366 C -0.164,1.465 0,1.629 0,1.831 v 1.496 c 0,0.329 -0.129,0.458 -0.458,0.458 h -3.235 c -0.329,0 -0.458,-0.129 -0.458,-0.458 z"
             style="fill:#211d1d;fill-opacity:1;fill-rule:nonzero;stroke:none"
             id="path686"
             inkscape:connector-curvature="0" /></g><g
           id="g688"
           transform="translate(1149.5133,68.7359)"><path
             d="m 0,0 c 0,0 -0.001,-0.02 -0.002,0 z m -4.151,0.305 c 0,-0.335 0.214,-0.549 0.549,-0.549 h 2.32 c 0.236,0 0.427,-0.192 0.427,-0.428 v -1.953 c 0,-0.236 -0.191,-0.427 -0.427,-0.427 h -0.977 c -0.235,0 -0.427,0.191 -0.427,0.427 v 0.916 c 0,0.202 -0.164,0.366 -0.366,0.366 h -0.733 c -0.202,0 -0.366,-0.164 -0.366,-0.366 v -1.496 c 0,-0.329 0.129,-0.458 0.458,-0.458 h 3.235 C -0.129,-3.663 0,-3.534 0,-3.205 V 0 h -0.002 c -0.025,0.3 -0.233,0.488 -0.547,0.488 h -2.442 c -0.236,0 -0.428,0.192 -0.428,0.428 v 1.831 c 0,0.236 0.192,0.427 0.428,0.427 h 1.831 c 0.236,0 0.427,-0.191 0.427,-0.427 V 1.831 c 0,-0.202 0.165,-0.366 0.367,-0.366 C -0.164,1.465 0,1.629 0,1.831 v 1.496 c 0,0.329 -0.129,0.458 -0.458,0.458 h -3.235 c -0.329,0 -0.458,-0.129 -0.458,-0.458 z"
             style="fill:#211d1d;fill-opacity:1;fill-rule:nonzero;stroke:none"
             id="path690"
             inkscape:connector-curvature="0" /></g></g></g><text
       transform="matrix(1,0,0,-1,1079.6587,65.0732)"
       style="font-variant:normal;font-weight:normal;font-stretch:normal;font-size:9.8270998px;font-family:Helvetica;-inkscape-font-specification:Helvetica;writing-mode:lr-tb;fill:#211d1d;fill-opacity:1;fill-rule:nonzero;stroke:none"
       id="text694"><tspan
         x="0 7.0460305 14.642379 21.68841 28.193951 34.69949 41.03109 43.71389 46.396687 87.195862 94.389297 97.07209 105.20893 111.71447 119.31082 126.35685 132.13715 138.64268 146.23904 152.74458 158.11018 165.1562 172.75256"
         y="0"
         sodipodi:role="line"
         id="tspan692">HOCKEY /  MAGNAVOX CO.</tspan></text>
<text
       transform="matrix(1,0,0,-1,1258.9683,65.0713)"
       style="font-variant:normal;font-weight:normal;font-stretch:normal;font-size:9.69639969px;font-family:Helvetica;-inkscape-font-specification:Helvetica;writing-mode:lr-tb;fill:#211d1d;fill-opacity:1;fill-rule:nonzero;stroke:none"
       id="text698"><tspan
         x="0 4.9063783 9.8127565 14.719135"
         y="0"
         sodipodi:role="line"
         id="tspan696">1972</tspan></text>
<g
       id="g700"><g
         id="g702"
         clip-path="url(#clipPath706)"><g
           id="g708"
           transform="translate(717.7004,1132.1708)"><path
             d="M 0,0 H 0.839 C 205.5,0 619.5,-39.69 619.5,-39.69 c 45.93,-4.253 76,-39 80,-103 0,0 10,-281.577 10,-415.62 0,-134.043 -10,-416 -10,-416 -4,-64 -32.325,-98.93 -80,-103 0,0 -414,-39.69 -618.66,-39.69 H 0 5.974 5.135 c -204.661,0 -618.661,39.69 -618.661,39.69 -47.674,4.07 -76,39 -80,103 0,0 -10,281.957 -10,416 0,134.043 10,415.62 10,415.62 4,64 34.07,98.747 80,103 0,0 414,39.69 618.661,39.69 l 0.839,0 z"
             style="fill:none;stroke:#231f20;stroke-width:1;stroke-linecap:butt;stroke-linejoin:miter;stroke-miterlimit:10;stroke-dasharray:none;stroke-opacity:1"
             id="path710"
             inkscape:connector-curvature="0" /></g><g
           id="g712"
           transform="translate(732.5132,1090.2275)"><path
             d="m 0,0 c 0,-6.262 -5.076,-11.339 -11.339,-11.339 -6.262,0 -11.338,5.077 -11.338,11.339 0,6.262 5.076,11.339 11.338,11.339 C -5.076,11.339 0,6.262 0,0 Z"
             style="fill:none;stroke:#231f20;stroke-width:1;stroke-linecap:butt;stroke-linejoin:miter;stroke-miterlimit:10;stroke-dasharray:none;stroke-opacity:1"
             id="path714"
             inkscape:connector-curvature="0" /></g><g
           id="g716"
           transform="translate(732.5132,52.0948)"><path
             d="m 0,0 c 0,-6.262 -5.076,-11.339 -11.339,-11.339 -6.262,0 -11.338,5.077 -11.338,11.339 0,6.262 5.076,11.339 11.338,11.339 C -5.076,11.339 0,6.262 0,0 Z"
             style="fill:none;stroke:#231f20;stroke-width:1;stroke-linecap:butt;stroke-linejoin:miter;stroke-miterlimit:10;stroke-dasharray:none;stroke-opacity:1"
             id="path718"
             inkscape:connector-curvature="0" /></g></g></g></g></svg>