<?xml version="1.0" encoding="UTF-8" standalone="no"?>
<!-- Created with Inkscape (http://www.inkscape.org/) -->

<svg
   xmlns:dc="http://purl.org/dc/elements/1.1/"
   xmlns:cc="http://creativecommons.org/ns#"
   xmlns:rdf="http://www.w3.org/1999/02/22-rdf-syntax-ns#"
   xmlns:svg="http://www.w3.org/2000/svg"
   xmlns="http://www.w3.org/2000/svg"
   xmlns:sodipodi="http://sodipodi.sourceforge.net/DTD/sodipodi-0.dtd"
   xmlns:inkscape="http://www.inkscape.org/namespaces/inkscape"
   version="1.1"
   id="svg2"
   xml:space="preserve"
   width="1889.16"
   height="1492.3066"
   viewBox="0 0 1889.16 1492.3066"
   sodipodi:docname="Submarine-Overlay.svg"
   inkscape:version="0.92.2 (5c3e80d, 2017-08-06)"><metadata
     id="metadata8"><rdf:RDF><cc:Work
         rdf:about=""><dc:format>image/svg+xml</dc:format><dc:type
           rdf:resource="http://purl.org/dc/dcmitype/StillImage" /><dc:title></dc:title></cc:Work></rdf:RDF></metadata><defs
     id="defs6"><clipPath
       clipPathUnits="userSpaceOnUse"
       id="clipPath18"><path
         d="M 0,1148.031 H 1445.669 V 0 H 0 Z"
         id="path16"
         inkscape:connector-curvature="0" /></clipPath><clipPath
       clipPathUnits="userSpaceOnUse"
       id="clipPath46"><path
         d="M 0,1148.031 H 1445.669 V 0 H 0 Z"
         id="path44"
         inkscape:connector-curvature="0" /></clipPath><clipPath
       clipPathUnits="userSpaceOnUse"
       id="clipPath190"><path
         d="M 0,1148.031 H 1445.669 V 0 H 0 Z"
         id="path188"
         inkscape:connector-curvature="0" /></clipPath><clipPath
       clipPathUnits="userSpaceOnUse"
       id="clipPath226"><path
         d="M 0,1148.031 H 1445.669 V 0 H 0 Z"
         id="path224"
         inkscape:connector-curvature="0" /></clipPath><clipPath
       clipPathUnits="userSpaceOnUse"
       id="clipPath270"><path
         d="M 0,1148.031 H 1445.669 V 0 H 0 Z"
         id="path268"
         inkscape:connector-curvature="0" /></clipPath></defs><sodipodi:namedview
     pagecolor="#ffffff"
     bordercolor="#666666"
     borderopacity="1"
     objecttolerance="10"
     gridtolerance="10"
     guidetolerance="10"
     inkscape:pageopacity="0"
     inkscape:pageshadow="2"
     inkscape:window-width="2041"
     inkscape:window-height="1110"
     id="namedview4"
     showgrid="false"
     inkscape:zoom="0.15814444"
     inkscape:cx="944.58002"
     inkscape:cy="746.15332"
     inkscape:window-x="0"
     inkscape:window-y="0"
     inkscape:window-maximized="0"
     inkscape:current-layer="g10" /><g
     id="g10"
     inkscape:groupmode="layer"
     inkscape:label="Submarine-Overlay"
     transform="matrix(1.3333333,0,0,-1.3333333,-19.2,1511.5067)"><g
       id="g12"><g
         id="g14"
         clip-path="url(#clipPath18)"><g
           id="g20"
           transform="translate(1289.1534,215.915)"><path
             d="m 0,0 -18.588,-17.519 c -0.325,-0.307 -0.837,-0.291 -1.144,0.034 L -37.251,1.102 c -0.494,0.525 -0.108,1.386 0.613,1.365 L -0.531,1.398 C 0.19,1.377 0.525,0.495 0,0"
             style="fill:#2f7d96;fill-opacity:1;fill-rule:nonzero;stroke:none"
             id="path22"
             inkscape:connector-curvature="0" /></g><g
           id="g24"
           transform="translate(1270.0116,195.3412)"><path
             d="m 0,0 c -1,0 -1.967,0.417 -2.652,1.145 l -7.106,7.538 c -2.862,-20.935 -12.339,-41.075 -26.976,-56.734 -18.343,-19.623 -42.706,-30.429 -68.603,-30.429 -52.708,0 -83.844,34.934 -94.492,64.85 -18.741,52.655 -56.924,81.542 -110.42,83.538 -30.793,1.158 -58.628,-10.552 -82.746,-34.777 -18.678,-18.759 -29.355,-39.402 -33.392,-47.206 -0.446,-0.863 -0.947,-1.865 -1.509,-2.988 -8.523,-17.048 -31.163,-62.334 -90.346,-63.418 -27.509,-0.545 -49.376,7.591 -66.859,24.752 -14.805,14.533 -23.073,32.233 -29.111,45.157 -1.879,4.023 -3.503,7.499 -5.074,10.32 l -1.164,2.106 c -12.024,21.788 -43.964,79.666 -122.887,79.666 -81.917,0 -113.436,-63.032 -121.144,-82.35 -18.424,-46.171 -53.845,-46.124 -65.534,-46.15 h -226.355 v 9.118 c 0,0.721 -0.872,1.082 -1.382,0.572 l -21.061,-18.061 c -0.317,-0.316 -0.317,-0.829 0,-1.145 l 21.061,-18.061 c 0.51,-0.51 1.382,-0.149 1.382,0.572 v 10.005 h 226.348 c 6.268,-0.001 20.891,-0.009 36.88,7.173 19.911,8.945 34.866,25.659 44.45,49.676 6.707,16.809 34.127,71.651 105.355,71.651 68.888,0 96.298,-49.67 108.002,-70.88 l 1.196,-2.161 c 1.277,-2.293 2.782,-5.516 4.525,-9.247 12.142,-25.992 37.247,-79.737 109.011,-79.736 0.883,0 1.775,0.009 2.671,0.025 69.477,1.272 96.396,55.12 105.242,72.814 0.522,1.045 0.988,1.977 1.42,2.814 25.403,49.11 60.157,74.264 100.386,72.771 46.618,-1.739 78.594,-26.048 95.039,-72.251 12.503,-35.128 48.948,-76.149 110.508,-76.149 30.655,0 59.43,12.721 81.023,35.82 16.735,17.903 27.682,40.864 31.225,64.811 L 2.499,0.992 C 1.817,0.352 0.931,0 0,0"
             style="fill:#2f7d96;fill-opacity:1;fill-rule:nonzero;stroke:none"
             id="path26"
             inkscape:connector-curvature="0" /></g><g
           id="g28"
           transform="translate(1270.0184,1023.371)"><path
             d="m 0,0 c -23.721,23.721 -46.292,23.98 -61.229,24.152 l -0.292,0.004 c -19.492,0.225 -306.459,2.493 -317.281,2.333 -1.08,-0.015 -2.318,10e-4 -3.693,0.016 -13.381,0.16 -41.222,0.488 -63.265,-23.42 -11.45,-12.419 -25.039,-31.924 -24.755,-54.324 l 0.004,-0.438 c 0,-2.326 -0.023,-28.678 -0.04,-47.631 2.442,6.392 6.125,13.15 11.41,19.549 1.615,1.956 3.482,3.988 5.613,6.006 0.009,11.343 0.017,20.73 0.017,22.076 l -0.006,0.654 c -0.213,16.808 10.898,32.435 20.255,42.585 16.912,18.342 37.982,18.093 50.566,17.944 1.544,-0.018 2.934,-0.034 4.144,-0.015 10.734,0.17 297.358,-2.108 316.834,-2.334 l 0.294,-0.004 C -47.8,6.997 -30.843,6.802 -12.021,-12.021 6.662,-30.704 6.659,-48.641 6.656,-61.738 v -0.481 c 0,-13.901 -1.041,-263.746 -1.382,-282.778 -0.324,-18.219 -6.806,-50.982 -46.57,-65.709 -36.819,-13.639 -67.159,15.968 -77.129,25.698 -0.81,0.791 -1.473,1.436 -1.98,1.904 -5.909,5.467 -181.548,182.246 -206.519,207.86 -10.316,10.583 -19.452,22.607 -17.954,53.108 0.937,19.098 -4.688,34.573 -16.719,45.997 -10.245,9.728 -22.85,14.255 -32.534,16.232 l 3.605,-4.799 c 1.177,-1.37 1.155,-3.423 -0.067,-4.766 l -6.075,-7.283 c 7.022,-1.571 16.331,-4.942 23.545,-11.883 8.153,-7.846 11.943,-18.836 11.265,-32.664 -1.832,-37.301 10.789,-53.527 22.761,-65.808 19.201,-19.697 199.948,-201.812 207.148,-208.473 0.423,-0.391 0.974,-0.931 1.65,-1.591 5.068,-4.946 16.935,-16.529 33.126,-24.741 12.271,-6.223 24.508,-9.339 36.596,-9.339 8.482,0 16.891,1.534 25.185,4.607 51.073,18.915 57.34,63.189 57.664,81.347 0.341,19.068 1.384,269.17 1.384,283.081 v 0.478 C 23.659,-47.5 23.664,-23.664 0,0"
             style="fill:#2f7d96;fill-opacity:1;fill-rule:nonzero;stroke:none"
             id="path30"
             inkscape:connector-curvature="0" /></g><g
           id="g32"
           transform="translate(1252.494,276.7387)"><path
             d="m 0,0 c -0.818,-1.474 -1.494,-3.394 -2.614,-6.574 -3.697,-10.498 -11.388,-32.343 -26.771,-42.133 -20.308,-12.925 -30.066,-13.688 -45.563,-13.922 -16.24,-0.244 -191.829,2.715 -205.046,3.244 l -0.764,0.031 c -11.928,0.469 -43.61,1.717 -59.61,18.784 -17.026,18.16 -18.451,35.043 -18.451,49.442 0,16.172 2.496,171.994 2.748,185.354 l 0.048,2.798 c 0.189,11.882 0.384,24.169 6.155,34.914 4.928,9.175 13.594,16.751 19.922,22.283 1.962,1.715 3.655,3.196 5.059,4.564 1.448,1.411 13.849,13.234 31.011,29.596 67.042,63.917 139.121,132.691 145.719,139.637 1.306,1.374 2.711,2.761 4.197,4.229 9.311,9.193 20.897,20.635 20.64,41.729 -0.253,20.801 -5.306,26.732 -17.731,39.306 -1.394,1.411 -2.903,2.939 -4.536,4.626 -14.007,14.482 -68.934,69.71 -80.919,80.658 -9.98,9.12 -13.982,14.619 -13.356,32.571 0.558,16.014 19.124,29.735 33.93,29.735 h 59.613 v 17 h -59.613 c -22.803,0 -50.013,-20.156 -50.921,-46.142 -0.817,-23.457 5.437,-33.431 18.88,-45.714 11.19,-10.223 64.464,-63.692 80.167,-79.927 1.678,-1.735 3.23,-3.305 4.663,-4.756 10.713,-10.842 12.644,-12.795 12.825,-27.564 0.169,-13.868 -7.133,-21.078 -15.586,-29.426 -1.517,-1.497 -3.085,-3.045 -4.577,-4.616 -6.862,-7.223 -96.805,-92.974 -145.126,-139.042 -17.842,-17.011 -29.629,-28.249 -31.145,-29.726 -1.074,-1.046 -2.607,-2.387 -4.383,-3.939 -6.897,-6.029 -17.32,-15.141 -23.71,-27.039 -7.725,-14.385 -7.965,-29.42 -8.177,-42.686 l -0.045,-2.749 c -0.233,-12.302 -2.752,-168.629 -2.752,-185.674 0,-18.949 2.792,-39.462 23.048,-61.069 20.768,-22.153 57.512,-23.6 71.344,-24.145 l 0.753,-0.029 c 12.742,-0.51 175.871,-3.271 203.292,-3.271 1.136,0 2.041,0.005 2.692,0.015 17.563,0.267 30.84,1.564 54.432,16.578 13.152,8.37 21.562,22.024 27.038,33.956 L 8.363,24.904 C 4.676,13.057 1.065,2.086 0,0"
             style="fill:#2f7d96;fill-opacity:1;fill-rule:nonzero;stroke:none"
             id="path34"
             inkscape:connector-curvature="0" /></g><g
           id="g36"
           transform="translate(744.4617,450.4213)"><path
             d="m 0,0 c 1.528,-1.239 2.979,-2.588 4.434,-4.125 5.912,-6.238 29.207,-29.152 44.621,-44.314 6.806,-6.695 11.77,-11.58 13.652,-13.46 8.094,-8.095 20.657,-13.325 32.006,-13.325 12.014,0 28.362,8.681 34.34,14.658 1.044,1.044 3.717,3.766 7.374,7.493 l 0.233,0.237 c 13.505,13.758 41.607,42.386 48.441,48.336 18.626,16.22 38.483,24.443 59.019,24.443 2.822,0 5.694,-0.158 8.536,-0.469 13.253,-1.447 33.367,-7.842 50.073,-21.452 20.338,-16.569 30.652,-39.307 30.652,-67.581 0,-27.535 -11.297,-49.6 -33.575,-65.584 -18.298,-13.128 -38.783,-17.688 -45.317,-17.753 l -0.628,-0.002 c -15.382,0 -193.049,2.841 -202.239,3.234 -11.345,0.484 -28.568,7.145 -42.883,24.39 -13.023,15.685 -14.694,31.422 -14.694,43.38 0,8.416 0.809,55.431 1.336,79.753 l 0.125,5.785 z m -235.539,350.663 c -8.92,8.569 -14.141,26.503 -13.299,45.69 0.973,22.206 9.548,41.897 22.937,52.673 15.627,12.577 34.778,19.504 53.927,19.504 18.348,0 35.239,-6.211 46.342,-17.04 5.882,-5.736 22.547,-23.164 37.25,-38.541 12.274,-12.836 23.858,-24.951 28.756,-29.849 9.892,-9.893 15.34,-24.096 15.34,-39.994 0,-18.005 -5.835,-38.489 -13.007,-45.661 -3.28,-3.28 -41.154,-39.619 -63.438,-60.988 l -2.043,-1.959 -1.963,2.04 c -31.466,32.722 -96.943,100.811 -110.802,114.125 m 765.96,-432.641 c -5.747,12.365 -11.647,18.247 -22.356,28.923 l -2.508,2.504 c -2.495,2.496 -13.583,13.646 -29.755,29.907 -102.199,102.766 -207.52,208.57 -213.79,214.117 -0.916,0.81 -1.95,1.786 -3.147,2.915 -9.336,8.813 -26.714,25.218 -57.152,25.218 -33.487,0 -54.726,-18.336 -55.613,-19.117 l -0.242,-0.22 C 95.988,154.895 20.185,83.081 15.819,79.464 12.764,77.071 -2.832,64.258 -9.833,46.961 c -3.439,-8.496 -5.868,-16.586 -7.265,-24.175 -6.887,1.432 -15.076,2.292 -25.025,2.485 -0.522,0.01 -1.039,0.015 -1.553,0.015 -27.986,0 -44.708,-14.751 -51.923,-21.115 l -0.176,-0.155 c -4.926,-4.345 -56.212,-55.255 -72.856,-71.899 -7.599,-7.599 -29.997,-19.441 -57.673,-18.895 -24.604,0.492 -46.16,10.58 -64.071,29.983 -18.336,19.864 -21.396,42.735 -20.734,58.423 0.966,22.898 10.284,43.301 18.56,50.873 5.052,4.623 99.167,94.689 169.365,161.985 19.088,-19.854 32.808,-34.121 35.482,-36.795 l 0.992,-0.996 c 8.835,-8.894 27.221,-27.402 65.003,-27.755 24.46,-0.214 49.026,10.041 67.332,28.176 16.05,15.901 25.255,36.308 25.255,55.99 v 221.147 c 0,6.29 3.387,17.188 10.821,26.251 8.621,10.508 20.299,16.16 34.747,16.827 v -9.519 c 0,-0.682 0.824,-1.023 1.307,-0.541 l 15.085,18.085 c 0.299,0.299 0.299,0.784 0,1.083 l -15.085,20.086 c -0.483,0.482 -1.307,0.14 -1.307,-0.542 V 514.338 C 72.283,512.722 53.88,474.776 53.88,454.253 V 233.106 c 0,-15.177 -7.37,-31.183 -20.22,-43.913 -14.942,-14.804 -34.793,-23.257 -54.561,-23.257 -0.215,0 -0.432,0.001 -0.646,0.003 -30.802,0.288 -44.762,14.341 -53.102,22.737 l -1.032,1.036 c -2.555,2.556 -16.904,17.477 -35.232,36.539 34.585,33.165 60.987,58.529 63.636,61.178 11.263,11.263 17.156,36.534 17.156,55.677 0,19.682 -6.921,37.443 -19.489,50.01 -4.774,4.774 -16.311,16.84 -28.526,29.614 -15.509,16.22 -31.546,32.991 -37.606,38.901 -13.03,12.709 -32.576,20.366 -53.627,21.008 -23.207,0.704 -46.445,-7.31 -65.414,-22.578 -16.76,-13.489 -27.041,-36.484 -28.207,-63.088 -1.043,-23.784 5.551,-44.914 17.637,-56.526 12.758,-12.255 68.37,-70.014 110.389,-113.71 -70.049,-67.152 -164.019,-157.08 -169.061,-161.693 -10.732,-9.82 -22.842,-33.629 -24.069,-62.699 -0.798,-18.907 2.931,-46.517 25.227,-70.671 20.872,-22.612 47.23,-34.869 76.223,-35.449 29.711,-0.588 57.722,11.559 70.034,23.871 18.143,18.143 67.787,67.383 72.08,71.17 l 0.177,0.156 c 6.848,6.041 19.598,17.258 41.901,16.852 9.744,-0.188 17.463,-0.944 23.847,-2.488 -0.486,-19.272 -1.515,-77.631 -1.515,-87.68 0,-13.22 1.861,-33.039 17.96,-52.429 14.672,-17.674 34.552,-28.699 53.178,-29.493 9.351,-0.401 193.951,-3.326 203.612,-3.245 10.184,0.101 32.82,5.619 53.434,20.408 18.011,12.923 39.482,36.788 39.482,77.094 0,32.28 -12.403,59.447 -35.87,78.564 -19.099,15.558 -42.216,22.884 -57.483,24.552 -27.679,3.019 -54.061,-6.187 -78.394,-27.373 -7.267,-6.327 -34.631,-34.205 -49.332,-49.182 -3.689,-3.758 -6.386,-6.506 -7.432,-7.552 -3.505,-3.505 -16.48,-10.509 -24.322,-10.509 -7.425,0 -16.673,3.859 -21.989,9.176 -1.957,1.956 -7.155,7.07 -13.735,13.542 -15.357,15.107 -38.565,37.937 -44.272,43.959 -4.331,4.572 -9.154,8.549 -15.485,11.709 0.903,5.902 2.819,13.685 6.693,23.256 5.494,13.573 18.87,24.317 20.377,25.498 4.747,3.718 109.614,103.295 131.093,123.698 1.436,1.188 18.514,14.827 44.318,14.827 23.682,0 36.802,-12.385 45.483,-20.58 1.249,-1.179 2.43,-2.294 3.552,-3.286 6.708,-5.935 156.579,-156.637 212.999,-213.371 16.191,-16.28 27.29,-27.441 29.788,-29.94 l 2.528,-2.522 c 10.233,-10.203 14.468,-14.426 18.942,-24.05 4.589,-9.876 5.208,-17.381 5.208,-23.421 0,-2.245 -0.265,-12.379 -0.65,-25.876 -0.011,-0.037 -0.022,-0.073 -0.033,-0.11 l -1.674,-57.095 c 0.002,0.005 0.004,0.01 0.006,0.016 -0.624,-20.465 -1.132,-36.741 -1.145,-37.167 l 16.992,-0.529 c 0.143,4.585 3.504,112.387 3.504,120.761 0,11.045 -2.095,20.479 -6.792,30.586"
             style="fill:#2f7d96;fill-opacity:1;fill-rule:nonzero;stroke:none"
             id="path38"
             inkscape:connector-curvature="0" /></g></g></g><g
       id="g40"><g
         id="g42"
         clip-path="url(#clipPath46)"><g
           id="g48"
           transform="translate(1203.3821,860.6941)"><path
             d="m 0,0 h -16.219 c -0.186,0 -0.293,0.211 -0.184,0.361 l 5.649,7.75 C -10.485,8.481 -10.749,9 -11.207,9 h -4.165 c -0.106,0 -0.206,-0.051 -0.268,-0.137 l -5.128,-7.035 -3.82,6.955 C -24.662,8.917 -24.802,9 -24.955,9 h -4.546 c -0.318,0 -0.519,-0.341 -0.366,-0.619 0,0 5.285,-9.519 5.66,-10.304 0.375,-0.785 -0.417,-2.494 -1.25,-2.494 h -34.769 c -0.833,0 -2.175,1.992 -1.8,2.777 0.375,0.786 6.376,10.021 6.376,10.021 C -55.496,8.659 -55.698,9 -56.016,9 h -3.546 c -0.152,0 -0.293,-0.083 -0.366,-0.217 L -63.735,3.126 C -64.101,2.388 -64.837,2.389 -65.207,3.125 L -68.41,8.863 C -68.473,8.949 -68.572,9 -68.679,9 h -3.631 c -0.458,0 -0.722,-0.519 -0.452,-0.889 L -68.81,1.522 C -68.701,1.372 -67.916,0 -68.999,0 h -18.517 c -0.396,0 -0.623,-0.452 -0.386,-0.769 l 8.615,-11.538 c 0.091,-0.121 0.234,-0.193 0.386,-0.193 h 1.092 68.102 1.092 c 0.151,0 0.294,0.072 0.385,0.193 L 0.385,-0.769 C 0.622,-0.452 0.396,0 0,0"
             style="fill:#2e3a9a;fill-opacity:1;fill-rule:nonzero;stroke:none"
             id="path50"
             inkscape:connector-curvature="0" /></g><g
           id="g52"
           transform="translate(1145.3414,862.5438)"><path
             d="M 0,0 V -4.408 C 0,-4.72 0.255,-4.975 0.567,-4.975 h 27.199 c 0.312,0 0.567,0.255 0.567,0.567 V 0 c 0,0.312 -0.255,0.567 -0.567,0.567 H 0.567 C 0.255,0.567 0,0.312 0,0"
             style="fill:#2e3a9a;fill-opacity:1;fill-rule:nonzero;stroke:none"
             id="path54"
             inkscape:connector-curvature="0" /></g><g
           id="g56"
           transform="translate(1162.1019,864.5691)"><path
             d="M 0,0 H 5.899 C 6.116,0 6.316,0.12 6.417,0.313 L 8.343,3.976 C 8.548,4.365 8.265,4.833 7.825,4.833 H 1.926 C 1.709,4.833 1.509,4.713 1.408,4.521 L -0.518,0.858 C -0.723,0.468 -0.44,0 0,0"
             style="fill:#2e3a9a;fill-opacity:1;fill-rule:nonzero;stroke:none"
             id="path58"
             inkscape:connector-curvature="0" /></g><g
           id="g60"
           transform="translate(1151.3468,864.5691)"><path
             d="M 0,0 H 6.631 C 6.848,0 7.047,0.12 7.149,0.313 L 9.075,3.976 C 9.28,4.365 8.997,4.833 8.557,4.833 H 1.926 C 1.709,4.833 1.51,4.713 1.408,4.521 L -0.518,0.858 C -0.723,0.468 -0.44,0 0,0"
             style="fill:#2e3a9a;fill-opacity:1;fill-rule:nonzero;stroke:none"
             id="path62"
             inkscape:connector-curvature="0" /></g><g
           id="g64"
           transform="translate(1202.1321,890.8191)"><path
             d="m 0,0 h -16.219 c -0.186,0 -0.293,0.211 -0.184,0.361 l 5.649,7.75 C -10.485,8.481 -10.749,9 -11.207,9 h -4.165 c -0.106,0 -0.206,-0.051 -0.268,-0.137 l -5.128,-7.035 -3.82,6.955 C -24.662,8.917 -24.802,9 -24.955,9 h -4.546 c -0.318,0 -0.519,-0.341 -0.366,-0.619 0,0 5.285,-9.519 5.66,-10.304 0.375,-0.785 -0.417,-2.494 -1.25,-2.494 h -34.769 c -0.833,0 -2.175,1.992 -1.8,2.777 0.375,0.786 6.376,10.021 6.376,10.021 C -55.496,8.659 -55.698,9 -56.016,9 h -3.546 c -0.152,0 -0.293,-0.083 -0.366,-0.217 L -63.735,3.126 C -64.101,2.388 -64.837,2.389 -65.207,3.125 L -68.41,8.863 C -68.473,8.949 -68.572,9 -68.679,9 h -3.631 c -0.458,0 -0.722,-0.519 -0.452,-0.889 L -68.81,1.522 C -68.701,1.372 -67.916,0 -68.999,0 h -18.517 c -0.396,0 -0.623,-0.452 -0.386,-0.769 l 8.615,-11.538 c 0.091,-0.121 0.234,-0.193 0.386,-0.193 h 1.092 68.102 1.092 c 0.151,0 0.294,0.072 0.385,0.193 L 0.385,-0.769 C 0.622,-0.452 0.396,0 0,0"
             style="fill:#2e3a9a;fill-opacity:1;fill-rule:nonzero;stroke:none"
             id="path66"
             inkscape:connector-curvature="0" /></g><g
           id="g68"
           transform="translate(1144.0914,892.6688)"><path
             d="M 0,0 V -4.408 C 0,-4.72 0.255,-4.975 0.567,-4.975 h 27.199 c 0.312,0 0.567,0.255 0.567,0.567 V 0 c 0,0.312 -0.255,0.567 -0.567,0.567 H 0.567 C 0.255,0.567 0,0.312 0,0"
             style="fill:#2e3a9a;fill-opacity:1;fill-rule:nonzero;stroke:none"
             id="path70"
             inkscape:connector-curvature="0" /></g><g
           id="g72"
           transform="translate(1160.8519,894.6941)"><path
             d="M 0,0 H 5.899 C 6.116,0 6.316,0.12 6.417,0.313 L 8.343,3.976 C 8.548,4.365 8.265,4.833 7.825,4.833 H 1.926 C 1.709,4.833 1.509,4.713 1.408,4.521 L -0.518,0.858 C -0.723,0.468 -0.44,0 0,0"
             style="fill:#2e3a9a;fill-opacity:1;fill-rule:nonzero;stroke:none"
             id="path74"
             inkscape:connector-curvature="0" /></g><g
           id="g76"
           transform="translate(1150.0968,894.6941)"><path
             d="M 0,0 H 6.631 C 6.848,0 7.047,0.12 7.149,0.313 L 9.075,3.976 C 9.28,4.365 8.997,4.833 8.557,4.833 H 1.926 C 1.709,4.833 1.51,4.713 1.408,4.521 L -0.518,0.858 C -0.723,0.468 -0.44,0 0,0"
             style="fill:#2e3a9a;fill-opacity:1;fill-rule:nonzero;stroke:none"
             id="path78"
             inkscape:connector-curvature="0" /></g><g
           id="g80"
           transform="translate(1200.6321,922.0691)"><path
             d="m 0,0 h -16.219 c -0.186,0 -0.293,0.211 -0.184,0.361 l 5.649,7.75 C -10.485,8.481 -10.749,9 -11.207,9 h -4.165 c -0.106,0 -0.206,-0.051 -0.268,-0.137 l -5.128,-7.035 -3.82,6.955 C -24.662,8.917 -24.802,9 -24.955,9 h -4.546 c -0.318,0 -0.519,-0.341 -0.366,-0.619 0,0 5.285,-9.519 5.66,-10.304 0.375,-0.785 -0.417,-2.494 -1.25,-2.494 h -34.769 c -0.833,0 -2.175,1.992 -1.8,2.777 0.375,0.786 6.376,10.021 6.376,10.021 C -55.496,8.659 -55.698,9 -56.016,9 h -3.546 c -0.152,0 -0.293,-0.083 -0.366,-0.217 L -63.735,3.126 C -64.101,2.388 -64.837,2.389 -65.207,3.125 L -68.41,8.863 C -68.473,8.949 -68.572,9 -68.679,9 h -3.631 c -0.458,0 -0.722,-0.519 -0.452,-0.889 L -68.81,1.522 C -68.701,1.372 -67.916,0 -68.999,0 h -18.517 c -0.396,0 -0.623,-0.452 -0.386,-0.769 l 8.615,-11.538 c 0.091,-0.121 0.234,-0.193 0.386,-0.193 h 1.092 68.102 1.092 c 0.151,0 0.294,0.072 0.385,0.193 L 0.385,-0.769 C 0.622,-0.452 0.396,0 0,0"
             style="fill:#2e3a9a;fill-opacity:1;fill-rule:nonzero;stroke:none"
             id="path82"
             inkscape:connector-curvature="0" /></g><g
           id="g84"
           transform="translate(1142.5914,923.9188)"><path
             d="M 0,0 V -4.408 C 0,-4.72 0.255,-4.975 0.567,-4.975 h 27.199 c 0.312,0 0.567,0.255 0.567,0.567 V 0 c 0,0.312 -0.255,0.567 -0.567,0.567 H 0.567 C 0.255,0.567 0,0.312 0,0"
             style="fill:#2e3a9a;fill-opacity:1;fill-rule:nonzero;stroke:none"
             id="path86"
             inkscape:connector-curvature="0" /></g><g
           id="g88"
           transform="translate(1159.3519,925.9441)"><path
             d="M 0,0 H 5.899 C 6.116,0 6.316,0.12 6.417,0.313 L 8.343,3.976 C 8.548,4.365 8.265,4.833 7.825,4.833 H 1.926 C 1.709,4.833 1.509,4.713 1.408,4.521 L -0.518,0.858 C -0.723,0.468 -0.44,0 0,0"
             style="fill:#2e3a9a;fill-opacity:1;fill-rule:nonzero;stroke:none"
             id="path90"
             inkscape:connector-curvature="0" /></g><g
           id="g92"
           transform="translate(1148.5968,925.9441)"><path
             d="M 0,0 H 6.631 C 6.848,0 7.047,0.12 7.149,0.313 L 9.075,3.976 C 9.28,4.365 8.997,4.833 8.557,4.833 H 1.926 C 1.709,4.833 1.51,4.713 1.408,4.521 L -0.518,0.858 C -0.723,0.468 -0.44,0 0,0"
             style="fill:#2e3a9a;fill-opacity:1;fill-rule:nonzero;stroke:none"
             id="path94"
             inkscape:connector-curvature="0" /></g><g
           id="g96"
           transform="translate(1200.6321,952.4441)"><path
             d="m 0,0 h -16.219 c -0.186,0 -0.293,0.211 -0.184,0.361 l 5.649,7.75 C -10.485,8.481 -10.749,9 -11.207,9 h -4.165 c -0.106,0 -0.206,-0.051 -0.268,-0.137 l -5.128,-7.035 -3.82,6.955 C -24.662,8.917 -24.802,9 -24.955,9 h -4.546 c -0.318,0 -0.519,-0.341 -0.366,-0.619 0,0 5.285,-9.519 5.66,-10.304 0.375,-0.785 -0.417,-2.494 -1.25,-2.494 h -34.769 c -0.833,0 -2.175,1.992 -1.8,2.777 0.375,0.786 6.376,10.021 6.376,10.021 C -55.496,8.659 -55.698,9 -56.016,9 h -3.546 c -0.152,0 -0.293,-0.083 -0.366,-0.217 L -63.735,3.126 C -64.101,2.388 -64.837,2.389 -65.207,3.125 L -68.41,8.863 C -68.473,8.949 -68.572,9 -68.679,9 h -3.631 c -0.458,0 -0.722,-0.519 -0.452,-0.889 L -68.81,1.522 C -68.701,1.372 -67.916,0 -68.999,0 h -18.517 c -0.396,0 -0.623,-0.452 -0.386,-0.769 l 8.615,-11.538 c 0.091,-0.121 0.234,-0.193 0.386,-0.193 h 1.092 68.102 1.092 c 0.151,0 0.294,0.072 0.385,0.193 L 0.385,-0.769 C 0.622,-0.452 0.396,0 0,0"
             style="fill:#2e3a9a;fill-opacity:1;fill-rule:nonzero;stroke:none"
             id="path98"
             inkscape:connector-curvature="0" /></g><g
           id="g100"
           transform="translate(1142.5914,954.2938)"><path
             d="M 0,0 V -4.408 C 0,-4.72 0.255,-4.975 0.567,-4.975 h 27.199 c 0.312,0 0.567,0.255 0.567,0.567 V 0 c 0,0.312 -0.255,0.567 -0.567,0.567 H 0.567 C 0.255,0.567 0,0.312 0,0"
             style="fill:#2e3a9a;fill-opacity:1;fill-rule:nonzero;stroke:none"
             id="path102"
             inkscape:connector-curvature="0" /></g><g
           id="g104"
           transform="translate(1159.3519,956.3191)"><path
             d="M 0,0 H 5.899 C 6.116,0 6.316,0.12 6.417,0.313 L 8.343,3.976 C 8.548,4.365 8.265,4.833 7.825,4.833 H 1.926 C 1.709,4.833 1.509,4.713 1.408,4.521 L -0.518,0.858 C -0.723,0.468 -0.44,0 0,0"
             style="fill:#2e3a9a;fill-opacity:1;fill-rule:nonzero;stroke:none"
             id="path106"
             inkscape:connector-curvature="0" /></g><g
           id="g108"
           transform="translate(1148.5968,956.3191)"><path
             d="M 0,0 H 6.631 C 6.848,0 7.047,0.12 7.149,0.313 L 9.075,3.976 C 9.28,4.365 8.997,4.833 8.557,4.833 H 1.926 C 1.709,4.833 1.51,4.713 1.408,4.521 L -0.518,0.858 C -0.723,0.468 -0.44,0 0,0"
             style="fill:#2e3a9a;fill-opacity:1;fill-rule:nonzero;stroke:none"
             id="path110"
             inkscape:connector-curvature="0" /></g><g
           id="g112"
           transform="translate(1200.6321,982.6941)"><path
             d="m 0,0 h -16.219 c -0.186,0 -0.293,0.211 -0.184,0.361 l 5.649,7.75 C -10.485,8.481 -10.749,9 -11.207,9 h -4.165 c -0.106,0 -0.206,-0.051 -0.268,-0.137 l -5.128,-7.035 -3.82,6.955 C -24.662,8.917 -24.802,9 -24.955,9 h -4.546 c -0.318,0 -0.519,-0.341 -0.366,-0.619 0,0 5.285,-9.519 5.66,-10.304 0.375,-0.785 -0.417,-2.494 -1.25,-2.494 h -34.769 c -0.833,0 -2.175,1.992 -1.8,2.777 0.375,0.786 6.376,10.021 6.376,10.021 C -55.496,8.659 -55.698,9 -56.016,9 h -3.546 c -0.152,0 -0.293,-0.083 -0.366,-0.217 L -63.735,3.126 C -64.101,2.388 -64.837,2.389 -65.207,3.125 L -68.41,8.863 C -68.473,8.949 -68.572,9 -68.679,9 h -3.631 c -0.458,0 -0.722,-0.519 -0.452,-0.889 L -68.81,1.522 C -68.701,1.372 -67.916,0 -68.999,0 h -18.517 c -0.396,0 -0.623,-0.452 -0.386,-0.769 l 8.615,-11.538 c 0.091,-0.121 0.234,-0.193 0.386,-0.193 h 1.092 68.102 1.092 c 0.151,0 0.294,0.072 0.385,0.193 L 0.385,-0.769 C 0.622,-0.452 0.396,0 0,0"
             style="fill:#2e3a9a;fill-opacity:1;fill-rule:nonzero;stroke:none"
             id="path114"
             inkscape:connector-curvature="0" /></g><g
           id="g116"
           transform="translate(1142.5914,984.5438)"><path
             d="M 0,0 V -4.408 C 0,-4.72 0.255,-4.975 0.567,-4.975 h 27.199 c 0.312,0 0.567,0.255 0.567,0.567 V 0 c 0,0.312 -0.255,0.567 -0.567,0.567 H 0.567 C 0.255,0.567 0,0.312 0,0"
             style="fill:#2e3a9a;fill-opacity:1;fill-rule:nonzero;stroke:none"
             id="path118"
             inkscape:connector-curvature="0" /></g><g
           id="g120"
           transform="translate(1159.3519,986.5691)"><path
             d="M 0,0 H 5.899 C 6.116,0 6.316,0.12 6.417,0.313 L 8.343,3.976 C 8.548,4.365 8.265,4.833 7.825,4.833 H 1.926 C 1.709,4.833 1.509,4.713 1.408,4.521 L -0.518,0.858 C -0.723,0.468 -0.44,0 0,0"
             style="fill:#2e3a9a;fill-opacity:1;fill-rule:nonzero;stroke:none"
             id="path122"
             inkscape:connector-curvature="0" /></g><g
           id="g124"
           transform="translate(1148.5968,986.5691)"><path
             d="M 0,0 H 6.631 C 6.848,0 7.047,0.12 7.149,0.313 L 9.075,3.976 C 9.28,4.365 8.997,4.833 8.557,4.833 H 1.926 C 1.709,4.833 1.51,4.713 1.408,4.521 L -0.518,0.858 C -0.723,0.468 -0.44,0 0,0"
             style="fill:#2e3a9a;fill-opacity:1;fill-rule:nonzero;stroke:none"
             id="path126"
             inkscape:connector-curvature="0" /></g><g
           id="g128"
           transform="translate(1210.7949,910.5062)"><path
             d="m 0,0 5.505,-2.49 v -1.806 c 0,-0.365 0.296,-0.662 0.662,-0.662 h 8.35 c 0.373,0 0.675,0.302 0.675,0.675 v 1.588 c 0,0.304 -0.246,0.55 -0.549,0.55 H 9.986 C 9.945,-2.12 9.915,-2.083 9.87,-2.062 L 4.397,0.411 0.902,1.995 C 0.351,2.244 -0.298,1.999 -0.547,1.448 -0.796,0.897 -0.551,0.249 0,0"
             style="fill:#2e3a9a;fill-opacity:1;fill-rule:nonzero;stroke:none"
             id="path130"
             inkscape:connector-curvature="0" /></g><g
           id="g132"
           transform="translate(1270.5322,907.2982)"><path
             d="m 0,0 h -10.03 c -0.23,0 -0.445,-0.113 -0.575,-0.302 l -2.291,-3.248 v 0.425 h -6.503 v 0.812 h 5.189 c 0.726,0 1.314,0.589 1.314,1.315 v 0.99 l 6.128,3.166 c 0.343,0.177 0.477,0.599 0.3,0.942 L -6.905,4.945 C -7.14,5.401 -7.7,5.579 -8.156,5.344 l -8.287,-4.282 h -6.094 c -0.663,0 -1.202,-0.538 -1.202,-1.201 v -0.846 c 0,-0.733 0.595,-1.328 1.328,-1.328 h 1.137 v -0.812 h -8.875 v 1.021 h 4.043 c 0.385,0 0.691,0.324 0.669,0.708 l -0.577,4.675 c 0,1.654 -1.325,3.003 -2.978,3.033 h -2.796 l 0.055,3.617 c 0,0.492 -0.391,0.894 -0.883,0.908 l -1.816,0.049 c -0.428,0.012 -0.801,-0.289 -0.881,-0.71 l -0.714,-3.864 h -0.018 l -0.469,-3.281 -1.677,-0.565 -9.604,4.394 c -0.311,0.142 -0.678,0.005 -0.82,-0.305 l -0.681,-1.489 c -0.142,-0.311 -0.006,-0.678 0.305,-0.82 l 6.82,-3.121 -0.187,-0.063 -0.875,-2.263 c 0,-0.499 0.405,-0.903 0.903,-0.903 h 9.889 V -3.125 H -54.3 l -1.889,3.731 c -0.142,0.28 -0.429,0.456 -0.743,0.456 h -13.363 c -0.401,0 -0.661,-0.422 -0.48,-0.78 l 4.374,-8.639 c 0.18,-0.356 0.545,-0.581 0.944,-0.581 h 7.849 6.25 34.665 l -0.141,-0.2 h 10.738 c 0.306,0 0.592,0.15 0.766,0.401 l 5.639,7.573 C 0.579,-0.772 0.476,0 0,0"
             style="fill:#2e3a9a;fill-opacity:1;fill-rule:nonzero;stroke:none"
             id="path134"
             inkscape:connector-curvature="0" /></g><g
           id="g136"
           transform="translate(1053.9408,909.6321)"><path
             d="m 0,0 5.505,-2.49 v -1.806 c 0,-0.365 0.296,-0.662 0.662,-0.662 h 8.35 c 0.373,0 0.675,0.302 0.675,0.675 v 1.588 c 0,0.304 -0.246,0.55 -0.549,0.55 H 9.986 C 9.945,-2.12 9.915,-2.083 9.87,-2.062 L 4.397,0.411 0.902,1.995 C 0.351,2.244 -0.298,1.999 -0.547,1.448 -0.796,0.897 -0.551,0.249 0,0"
             style="fill:#2e3a9a;fill-opacity:1;fill-rule:nonzero;stroke:none"
             id="path138"
             inkscape:connector-curvature="0" /></g><g
           id="g140"
           transform="translate(1113.6781,906.4242)"><path
             d="m 0,0 h -10.03 c -0.23,0 -0.445,-0.113 -0.575,-0.302 l -2.291,-3.248 v 0.425 h -6.503 v 0.812 h 5.189 c 0.726,0 1.314,0.589 1.314,1.315 v 0.99 l 6.128,3.166 c 0.343,0.177 0.477,0.599 0.3,0.942 L -6.905,4.945 C -7.14,5.401 -7.7,5.579 -8.156,5.344 l -8.287,-4.282 h -6.094 c -0.663,0 -1.202,-0.538 -1.202,-1.201 v -0.846 c 0,-0.733 0.595,-1.328 1.328,-1.328 h 1.137 v -0.812 h -8.875 v 1.021 h 4.043 c 0.385,0 0.691,0.324 0.669,0.708 l -0.577,4.675 c 0,1.654 -1.325,3.003 -2.978,3.033 h -2.796 l 0.055,3.617 c 0,0.492 -0.391,0.894 -0.883,0.908 l -1.816,0.049 c -0.428,0.012 -0.801,-0.289 -0.881,-0.71 l -0.714,-3.864 h -0.018 l -0.469,-3.281 -1.677,-0.565 -9.604,4.394 c -0.311,0.142 -0.678,0.005 -0.82,-0.305 l -0.681,-1.489 c -0.142,-0.311 -0.006,-0.678 0.305,-0.82 l 6.82,-3.121 -0.187,-0.063 -0.875,-2.263 c 0,-0.499 0.405,-0.903 0.903,-0.903 h 9.889 V -3.125 H -54.3 l -1.889,3.731 c -0.142,0.28 -0.429,0.456 -0.743,0.456 h -13.363 c -0.401,0 -0.661,-0.422 -0.48,-0.78 l 4.374,-8.639 c 0.18,-0.356 0.545,-0.581 0.944,-0.581 h 7.849 6.25 34.665 l -0.141,-0.2 h 10.738 c 0.306,0 0.592,0.15 0.766,0.401 l 5.639,7.573 C 0.579,-0.772 0.476,0 0,0"
             style="fill:#2e3a9a;fill-opacity:1;fill-rule:nonzero;stroke:none"
             id="path142"
             inkscape:connector-curvature="0" /></g><g
           id="g144"
           transform="translate(154.4923,595.009)"><path
             d="M 0,0 C 0.435,0.04 0.798,0.325 0.798,0.762 V 3.074 C 0.798,3.501 0.446,3.843 0.019,3.831 -1.401,3.79 -4.426,3.686 -6.167,3.512 -9.063,3.223 -10.619,0.078 -10.832,-3.144 h -7.312 c -2.249,0 -4.071,-1.822 -4.071,-4.071 v -0.226 c 0,-2.248 1.822,-4.071 4.071,-4.071 H 0.798 v 8.368 h -6.381 c -0.351,0.805 -0.105,1.632 0.078,2.027 C -4.849,0.164 -1.943,-0.18 0,0"
             style="fill:#2e3a9a;fill-opacity:1;fill-rule:nonzero;stroke:none"
             id="path146"
             inkscape:connector-curvature="0" /></g><g
           id="g148"
           transform="translate(155.5497,573.5789)"><path
             d="M 0,0 C -1.105,0 -2,0.895 -2,2 -2,3.105 -1.105,4 0,4 1.105,4 2,3.105 2,2 2,0.895 1.105,0 0,0 m -8.813,0 c -1.104,0 -2,0.895 -2,2 0,1.105 0.896,2 2,2 1.105,0 2.001,-0.895 2.001,-2 0,-1.105 -0.896,-2 -2.001,-2 m -8.812,0 c -1.105,0 -2,0.895 -2,2 0,1.105 0.895,2 2,2 1.105,0 2,-0.895 2,-2 0,-1.105 -0.895,-2 -2,-2 m -8.812,0 c -1.105,0 -2,0.895 -2,2 0,1.105 0.895,2 2,2 1.104,0 2,-0.895 2,-2 0,-1.105 -0.896,-2 -2,-2 m -8.813,0 c -1.105,0 -2,0.895 -2,2 0,1.105 0.895,2 2,2 1.105,0 2,-0.895 2,-2 0,-1.105 -0.895,-2 -2,-2 m 82.599,9.032 h -92.892 c -3.62,0 -6.555,-2.935 -6.555,-6.555 V 1.523 c 0,-3.62 2.935,-6.555 6.555,-6.555 h 92.892 c 3.62,0 6.554,2.935 6.554,6.555 v 0.954 c 0,3.62 -2.934,6.555 -6.554,6.555"
             style="fill:#2e3a9a;fill-opacity:1;fill-rule:nonzero;stroke:none"
             id="path150"
             inkscape:connector-curvature="0" /></g></g></g><g
       id="g152"
       transform="translate(724.059,514.1951)"><path
         d="M 0,0 V -425.701"
         style="fill:none;stroke:#231f20;stroke-width:1;stroke-linecap:butt;stroke-linejoin:miter;stroke-miterlimit:10;stroke-dasharray:none;stroke-opacity:1"
         id="path154"
         inkscape:connector-curvature="0" /></g><g
       id="g156"
       transform="translate(724.059,1057.38)"><path
         d="M 0,0 V -425.906"
         style="fill:none;stroke:#231f20;stroke-width:1;stroke-linecap:butt;stroke-linejoin:miter;stroke-miterlimit:10;stroke-dasharray:none;stroke-opacity:1"
         id="path158"
         inkscape:connector-curvature="0" /></g><g
       id="g160"
       transform="translate(682.5953,531.3708)"><path
         d="M 0,0 -301.016,-301.016"
         style="fill:none;stroke:#231f20;stroke-width:1;stroke-linecap:butt;stroke-linejoin:miter;stroke-miterlimit:10;stroke-dasharray:none;stroke-opacity:1"
         id="path162"
         inkscape:connector-curvature="0" /></g><g
       id="g164"
       transform="translate(1066.5388,915.3143)"><path
         d="M 0,0 -301.015,-301.016"
         style="fill:none;stroke:#231f20;stroke-width:1;stroke-linecap:butt;stroke-linejoin:miter;stroke-miterlimit:10;stroke-dasharray:none;stroke-opacity:1"
         id="path166"
         inkscape:connector-curvature="0" /></g><g
       id="g168"
       transform="translate(765.5228,531.3708)"><path
         d="M 0,0 301.016,-301.016"
         style="fill:none;stroke:#231f20;stroke-width:1;stroke-linecap:butt;stroke-linejoin:miter;stroke-miterlimit:10;stroke-dasharray:none;stroke-opacity:1"
         id="path170"
         inkscape:connector-curvature="0" /></g><g
       id="g172"
       transform="translate(381.5793,915.3143)"><path
         d="M 0,0 301.013,-301.013"
         style="fill:none;stroke:#231f20;stroke-width:1;stroke-linecap:butt;stroke-linejoin:miter;stroke-miterlimit:10;stroke-dasharray:none;stroke-opacity:1"
         id="path174"
         inkscape:connector-curvature="0" /></g><g
       id="g176"
       transform="translate(782.6984,572.8345)"><path
         d="M 0,0 H 425.701"
         style="fill:none;stroke:#231f20;stroke-width:1;stroke-linecap:butt;stroke-linejoin:miter;stroke-miterlimit:10;stroke-dasharray:none;stroke-opacity:1"
         id="path178"
         inkscape:connector-curvature="0" /></g><g
       id="g180"
       transform="translate(239.719,572.8345)"><path
         d="M 0,0 H 425.7"
         style="fill:none;stroke:#231f20;stroke-width:1;stroke-linecap:butt;stroke-linejoin:miter;stroke-miterlimit:10;stroke-dasharray:none;stroke-opacity:1"
         id="path182"
         inkscape:connector-curvature="0" /></g><g
       id="g184"><g
         id="g186"
         clip-path="url(#clipPath190)"><g
           id="g192"
           transform="translate(782.6985,572.8345)"><path
             d="m 0,0 c 0,-32.386 -26.254,-58.64 -58.64,-58.64 -32.385,0 -58.639,26.254 -58.639,58.64 0,32.386 26.254,58.64 58.639,58.64 C -26.254,58.64 0,32.386 0,0 Z"
             style="fill:none;stroke:#231f20;stroke-width:3;stroke-linecap:butt;stroke-linejoin:miter;stroke-miterlimit:10;stroke-dasharray:none;stroke-opacity:1"
             id="path194"
             inkscape:connector-curvature="0" /></g><g
           id="g196"
           transform="translate(890.6985,572.8345)"><path
             d="m 0,0 c 0,-92.032 -74.607,-166.64 -166.64,-166.64 -92.032,0 -166.639,74.608 -166.639,166.64 0,92.032 74.607,166.64 166.639,166.64 C -74.607,166.64 0,92.032 0,0 Z"
             style="fill:none;stroke:#231f20;stroke-width:3;stroke-linecap:butt;stroke-linejoin:miter;stroke-miterlimit:10;stroke-dasharray:none;stroke-opacity:1"
             id="path198"
             inkscape:connector-curvature="0" /></g><g
           id="g200"
           transform="translate(997.7324,572.8345)"><path
             d="m 0,0 c 0,-151.146 -122.528,-273.673 -273.673,-273.673 -151.146,0 -273.674,122.527 -273.674,273.673 0,151.146 122.528,273.673 273.674,273.673 C -122.528,273.673 0,151.146 0,0 Z"
             style="fill:none;stroke:#231f20;stroke-width:3;stroke-linecap:butt;stroke-linejoin:miter;stroke-miterlimit:10;stroke-dasharray:none;stroke-opacity:1"
             id="path202"
             inkscape:connector-curvature="0" /></g><g
           id="g204"
           transform="translate(1105.0657,572.8345)"><path
             d="m 0,0 c 0,-210.424 -170.582,-381.007 -381.007,-381.007 -210.424,0 -381.006,170.583 -381.006,381.007 0,210.424 170.582,381.007 381.006,381.007 C -170.582,381.007 0,210.424 0,0 Z"
             style="fill:none;stroke:#231f20;stroke-width:3;stroke-linecap:butt;stroke-linejoin:miter;stroke-miterlimit:10;stroke-dasharray:none;stroke-opacity:1"
             id="path206"
             inkscape:connector-curvature="0" /></g><g
           id="g208"
           transform="translate(1208.399,572.8345)"><path
             d="m 0,0 c 0,-267.494 -216.846,-484.34 -484.34,-484.34 -267.494,0 -484.34,216.846 -484.34,484.34 0,267.494 216.846,484.34 484.34,484.34 C -216.846,484.34 0,267.494 0,0 Z"
             style="fill:none;stroke:#231f20;stroke-width:3;stroke-linecap:butt;stroke-linejoin:miter;stroke-miterlimit:10;stroke-dasharray:none;stroke-opacity:1"
             id="path210"
             inkscape:connector-curvature="0" /></g><g
           id="g212"
           transform="translate(724.059,600.3345)"><path
             d="M 0,0 V -55"
             style="fill:none;stroke:#231f20;stroke-width:4.19999981;stroke-linecap:butt;stroke-linejoin:miter;stroke-miterlimit:10;stroke-dasharray:none;stroke-opacity:1"
             id="path214"
             inkscape:connector-curvature="0" /></g><g
           id="g216"
           transform="translate(751.559,572.8345)"><path
             d="M 0,0 H -55"
             style="fill:none;stroke:#231f20;stroke-width:4.19999981;stroke-linecap:butt;stroke-linejoin:miter;stroke-miterlimit:10;stroke-dasharray:none;stroke-opacity:1"
             id="path218"
             inkscape:connector-curvature="0" /></g></g></g><g
       id="g220"><g
         id="g222"
         clip-path="url(#clipPath226)"><g
           id="g228"
           transform="translate(1215.6423,82.3609)"><path
             d="m 0,0 c 0,0.194 0.158,0.353 0.353,0.353 h 1.044 c 0.396,0 0.718,-0.322 0.718,-0.719 v -3.7 c 0,-0.397 -0.322,-0.719 -0.718,-0.719 H 0.353 C 0.158,-4.785 0,-4.627 0,-4.432 Z m -1.31,0.478 v -5.389 c 0,-0.271 0.107,-0.377 0.378,-0.377 h 2.344 c 0.722,0 1.308,0.585 1.308,1.308 v 3.528 C 2.72,0.27 2.134,0.856 1.412,0.856 H -0.932 C -1.203,0.856 -1.31,0.75 -1.31,0.478"
             style="fill:#231f20;fill-opacity:1;fill-rule:nonzero;stroke:none"
             id="path230"
             inkscape:connector-curvature="0" /></g><g
           id="g232"
           transform="translate(1210.0516,82.2602)"><path
             d="M 0,0 C 0,0.277 0.177,0.453 0.453,0.453 H 2.266 C 2.543,0.453 2.72,0.277 2.72,0 V -1.565 C 2.174,-1.605 2.015,-1.96 2.015,-2.166 v -2.166 c 0,-0.194 -0.159,-0.352 -0.353,-0.352 H 0.453 C 0.177,-4.684 0,-4.507 0,-4.231 Z M -0.604,0.579 V -4.81 c 0,-0.272 0.106,-0.378 0.377,-0.378 h 3.173 c 0.272,0 0.378,0.106 0.378,0.378 v 5.389 c 0,0.272 -0.106,0.378 -0.378,0.378 h -3.173 c -0.271,0 -0.377,-0.106 -0.377,-0.378"
             style="fill:#231f20;fill-opacity:1;fill-rule:nonzero;stroke:none"
             id="path234"
             inkscape:connector-curvature="0" /></g><g
           id="g236"
           transform="translate(1232.0144,82.8394)"><path
             d="m 0,0 v -5.389 c 0,-0.272 0.106,-0.378 0.378,-0.378 h 2.72 c 0.069,0 0.126,0.056 0.126,0.126 v 0.126 c 0,0.139 -0.214,0.252 -0.353,0.252 H 1.718 c -0.226,0 -0.408,0.182 -0.408,0.408 v 1.501 c 0,0.225 0.182,0.408 0.408,0.408 h 1.38 c 0.069,0 0.126,0.056 0.126,0.125 v 0.252 c 0,0.07 -0.057,0.126 -0.126,0.126 H 1.036 c -0.251,0 -0.432,0.181 -0.432,0.432 v 1.353 c 0,0.251 0.181,0.431 0.432,0.431 h 2.062 c 0.069,0 0.126,0.057 0.126,0.126 v 0.353 c 0,0.069 -0.057,0.126 -0.126,0.126 H 0.378 C 0.106,0.378 0,0.271 0,0"
             style="fill:#231f20;fill-opacity:1;fill-rule:nonzero;stroke:none"
             id="path238"
             inkscape:connector-curvature="0" /></g><g
           id="g240"
           transform="translate(1219.2184,82.9653)"><path
             d="m 0,0 v -2.232 c 0,0 0.049,-0.169 0.111,-0.217 0.074,-0.058 0.173,-0.164 0.293,-0.264 0.314,-0.264 0.698,-0.622 0.704,-0.809 v -0.004 -2.163 c 0,-0.113 0.091,-0.204 0.204,-0.204 h 0.801 c 0.113,0 0.204,0.091 0.204,0.204 v 2.163 0.004 c 0.006,0.187 0.39,0.545 0.704,0.809 0.12,0.1 0.219,0.206 0.293,0.264 0.062,0.048 0.111,0.217 0.111,0.217 L 3.425,0 C 3.425,0.139 3.312,0.252 3.173,0.252 3.034,0.252 2.921,0.139 2.921,0 v -1.864 c 0,-0.321 -1.209,-1.108 -1.209,-1.108 0,0 -1.208,0.787 -1.208,1.108 L 0.504,0 C 0.504,0.139 0.391,0.252 0.252,0.252 0.113,0.252 0,0.139 0,0"
             style="fill:#231f20;fill-opacity:1;fill-rule:nonzero;stroke:none"
             id="path242"
             inkscape:connector-curvature="0" /></g><g
           id="g244"
           transform="translate(1235.6548,82.9653)"><path
             d="m 0,0 v -2.232 c 0,0 0.049,-0.169 0.111,-0.217 0.074,-0.058 0.173,-0.164 0.293,-0.264 0.314,-0.264 0.698,-0.622 0.704,-0.809 v -0.004 -2.163 c 0,-0.113 0.091,-0.204 0.204,-0.204 h 0.801 c 0.113,0 0.204,0.091 0.204,0.204 v 2.163 0.004 c 0.006,0.187 0.39,0.545 0.704,0.809 0.12,0.1 0.219,0.206 0.293,0.264 0.062,0.048 0.111,0.217 0.111,0.217 L 3.425,0 C 3.425,0.139 3.312,0.252 3.173,0.252 3.034,0.252 2.921,0.139 2.921,0 v -1.864 c 0,-0.321 -1.209,-1.108 -1.209,-1.108 0,0 -1.208,0.787 -1.208,1.108 L 0.504,0 C 0.504,0.139 0.391,0.252 0.252,0.252 0.113,0.252 0,0.139 0,0"
             style="fill:#231f20;fill-opacity:1;fill-rule:nonzero;stroke:none"
             id="path246"
             inkscape:connector-curvature="0" /></g><g
           id="g248"
           transform="translate(1231.0975,80.0944)"><path
             d="m 0,0 c 0,0 0,-0.017 -0.002,0 z m -3.425,0.252 c 0,-0.277 0.177,-0.453 0.453,-0.453 h 1.914 c 0.195,0 0.353,-0.159 0.353,-0.353 v -1.612 c 0,-0.194 -0.158,-0.352 -0.353,-0.352 h -0.806 c -0.194,0 -0.352,0.158 -0.352,0.352 v 0.756 c 0,0.166 -0.136,0.302 -0.302,0.302 h -0.605 c -0.166,0 -0.302,-0.136 -0.302,-0.302 v -1.234 c 0,-0.272 0.106,-0.378 0.378,-0.378 h 2.669 C -0.106,-3.022 0,-2.916 0,-2.644 V 0 h -0.002 c -0.02,0.247 -0.192,0.403 -0.451,0.403 h -2.015 c -0.194,0 -0.353,0.158 -0.353,0.352 v 1.511 c 0,0.195 0.159,0.353 0.353,0.353 h 1.511 c 0.194,0 0.353,-0.158 0.353,-0.353 V 1.511 c 0,-0.167 0.135,-0.302 0.302,-0.302 C -0.135,1.209 0,1.344 0,1.511 v 1.234 c 0,0.271 -0.106,0.378 -0.378,0.378 h -2.669 c -0.272,0 -0.378,-0.107 -0.378,-0.378 z"
             style="fill:#231f20;fill-opacity:1;fill-rule:nonzero;stroke:none"
             id="path250"
             inkscape:connector-curvature="0" /></g><g
           id="g252"
           transform="translate(1227.0682,80.0944)"><path
             d="m 0,0 c 0,0 0,-0.017 -0.002,0 z m -3.425,0.252 c 0,-0.277 0.177,-0.453 0.453,-0.453 h 1.914 c 0.195,0 0.353,-0.159 0.353,-0.353 v -1.612 c 0,-0.194 -0.158,-0.352 -0.353,-0.352 h -0.806 c -0.194,0 -0.352,0.158 -0.352,0.352 v 0.756 c 0,0.166 -0.136,0.302 -0.302,0.302 h -0.605 c -0.167,0 -0.302,-0.136 -0.302,-0.302 v -1.234 c 0,-0.272 0.106,-0.378 0.378,-0.378 h 2.669 C -0.106,-3.022 0,-2.916 0,-2.644 V 0 h -0.002 c -0.02,0.247 -0.192,0.403 -0.451,0.403 h -2.015 c -0.194,0 -0.353,0.158 -0.353,0.352 v 1.511 c 0,0.195 0.159,0.353 0.353,0.353 h 1.511 c 0.194,0 0.353,-0.158 0.353,-0.353 V 1.511 c 0,-0.167 0.135,-0.302 0.302,-0.302 C -0.135,1.209 0,1.344 0,1.511 v 1.234 c 0,0.271 -0.106,0.378 -0.378,0.378 h -2.669 c -0.272,0 -0.378,-0.107 -0.378,-0.378 z"
             style="fill:#231f20;fill-opacity:1;fill-rule:nonzero;stroke:none"
             id="path254"
             inkscape:connector-curvature="0" /></g></g></g><text
       transform="matrix(1,0,0,-1,1155.166,77.0723)"
       style="font-variant:normal;font-weight:normal;font-stretch:normal;font-size:8.10779953px;font-family:Helvetica;-inkscape-font-specification:Helvetica;writing-mode:lr-tb;fill:#231f20;fill-opacity:1;fill-rule:nonzero;stroke:none"
       id="text258"><tspan
         x="0 5.3673635 11.180656 16.548019 23.261278 28.628641 34.441933 36.655365 42.468655 47.836021 50.04945 52.262878 86.210236 92.145149 94.358574 101.07184 106.4392 112.70653 118.51982 123.28883 128.65619 134.92352 140.29088 144.71774 150.53104 156.79837"
         y="0"
         sodipodi:role="line"
         id="tspan256">SUBMARINE / © MAGNAVOX CO.</tspan></text>
<text
       transform="matrix(1,0,0,-1,1317.373,77.0723)"
       style="font-variant:normal;font-weight:normal;font-stretch:normal;font-size:8px;font-family:Helvetica;-inkscape-font-specification:Helvetica;writing-mode:lr-tb;fill:#231f20;fill-opacity:1;fill-rule:nonzero;stroke:none"
       id="text262"><tspan
         x="0 4.0479999 8.0959997 12.144"
         y="0"
         sodipodi:role="line"
         id="tspan260">1972</tspan></text>
<g
       id="g264"><g
         id="g266"
         clip-path="url(#clipPath270)"><g
           id="g272"
           transform="translate(717.7004,1132.1708)"><path
             d="M 0,0 H 0.839 C 205.5,0 619.5,-39.69 619.5,-39.69 c 45.93,-4.253 76,-39 80,-103 0,0 10,-281.577 10,-415.62 0,-134.043 -10,-416 -10,-416 -4,-64 -32.325,-98.93 -80,-103 0,0 -414,-39.69 -618.66,-39.69 H 0 5.974 5.135 c -204.661,0 -618.661,39.69 -618.661,39.69 -47.674,4.07 -76,39 -80,103 0,0 -10,281.957 -10,416 0,134.043 10,415.62 10,415.62 4,64 34.07,98.747 80,103 0,0 414,39.69 618.661,39.69 l 0.839,0 z"
             style="fill:none;stroke:#231f20;stroke-width:1;stroke-linecap:butt;stroke-linejoin:miter;stroke-miterlimit:10;stroke-dasharray:none;stroke-opacity:1"
             id="path274"
             inkscape:connector-curvature="0" /></g><g
           id="g276"
           transform="translate(732.5132,1090.2275)"><path
             d="m 0,0 c 0,-6.262 -5.076,-11.339 -11.339,-11.339 -6.262,0 -11.338,5.077 -11.338,11.339 0,6.262 5.076,11.339 11.338,11.339 C -5.076,11.339 0,6.262 0,0 Z"
             style="fill:none;stroke:#231f20;stroke-width:1;stroke-linecap:butt;stroke-linejoin:miter;stroke-miterlimit:10;stroke-dasharray:none;stroke-opacity:1"
             id="path278"
             inkscape:connector-curvature="0" /></g><g
           id="g280"
           transform="translate(732.5132,52.0948)"><path
             d="m 0,0 c 0,-6.262 -5.076,-11.339 -11.339,-11.339 -6.262,0 -11.338,5.077 -11.338,11.339 0,6.262 5.076,11.339 11.338,11.339 C -5.076,11.339 0,6.262 0,0 Z"
             style="fill:none;stroke:#231f20;stroke-width:1;stroke-linecap:butt;stroke-linejoin:miter;stroke-miterlimit:10;stroke-dasharray:none;stroke-opacity:1"
             id="path282"
             inkscape:connector-curvature="0" /></g></g></g></g></svg>